<svg viewBox="0 0 700 1132" fill="none" xmlns="http://www.w3.org/2000/svg">
<path opacity="0.16" d="M386.369 1008.51V1011.04C387.42 1012.76 388.008 1014.73 388.075 1016.75C388.141 1018.77 387.684 1020.77 386.749 1022.56C386.56 1022.93 386.461 1023.34 386.461 1023.76C386.461 1024.18 386.56 1024.59 386.749 1024.96C389.413 1030.13 390.904 1035.81 391.117 1041.61C393.323 1053.9 391.847 1066.56 386.875 1078.01C395.947 1078.76 405.074 1078.53 414.096 1077.32C420.996 1076.49 427.96 1075.54 434.923 1075.16C442.265 1074.66 449.462 1072.88 456.193 1069.91C462.524 1067 469.74 1065.04 476.451 1062.5C486.627 1058.26 496.413 1053.13 505.697 1047.18C525.384 1035.66 545.199 1024.4 564.886 1012.87C572.21 1008.2 579.002 1002.75 585.144 996.605C587.612 994.326 590.335 992.3 592.677 989.895C596.238 986.942 598.508 982.718 599.007 978.12C599.123 977.291 599.45 976.507 599.956 975.841C603.424 968.85 605.835 961.383 607.11 953.685C607.363 952.227 608.009 950.867 608.98 949.751C609.951 948.635 611.209 947.806 612.617 947.354C615.656 946.088 619.454 945.835 620.277 941.024C620.657 938.618 624.392 937.352 627.051 938.365C635.407 941.594 643.573 945.518 651.993 948.557C654.841 949.95 657.753 951.216 660.665 952.355C666.769 954.111 673.298 953.64 679.086 951.026C679.958 950.66 680.749 950.125 681.413 949.451C682.077 948.778 682.6 947.979 682.953 947.102C683.307 946.225 683.482 945.286 683.471 944.341C683.459 943.395 683.26 942.462 682.885 941.594C682.474 940.603 681.846 939.716 681.049 938.998C675.993 934.192 670.432 929.947 664.463 926.337C663.767 926.337 662.881 926.337 662.438 926.337C658.703 928.616 653.955 926.844 650.283 929.566C649.798 929.832 649.254 929.971 648.701 929.971C648.147 929.971 647.603 929.832 647.118 929.566C643.953 926.401 639.521 927.604 635.85 926.591C624.637 923.235 614.434 917.144 606.16 908.865H605.844L604.198 907.156L602.489 905.51L600.843 903.801L599.133 902.155C591.347 898.483 590.271 898.737 586.979 904.94C581.968 913.178 575.308 920.29 567.418 925.831C559.783 931.351 551.765 936.322 543.426 940.707C530.765 948.241 517.408 955.141 504.874 963.244C498.006 967.481 490.905 971.327 483.604 974.765C475.408 979.199 466.801 982.825 457.902 985.59C451.572 987.489 444.735 989.515 437.898 990.844C430.832 992.75 423.565 993.813 416.248 994.009C415.14 994.06 414.039 994.209 412.957 994.452C412.544 994.873 412.051 995.208 411.508 995.436C410.964 995.665 410.381 995.782 409.791 995.782C409.202 995.782 408.618 995.665 408.075 995.436C407.531 995.208 407.039 994.873 406.626 994.452C405.14 994.377 403.66 994.208 402.195 993.946C400.296 993.629 398.017 995.022 396.498 992.806C394.86 992.08 393.002 992.032 391.329 992.673C389.656 993.313 388.305 994.591 387.572 996.225C386.34 998 385.583 1000.06 385.373 1002.21C385.162 1004.36 385.505 1006.53 386.369 1008.51Z" fill="#181816"/>
<path opacity="0.16" d="M247.157 933.615H245.448C243.865 932.982 243.105 931.589 242.093 930.386H240.383C238.801 929.816 238.041 928.36 237.028 927.158H235.319C232.396 925.208 229.585 923.094 226.9 920.827C223.671 921.65 223.291 917.852 221.013 917.219C217.279 915.761 213.986 913.362 211.454 910.256C209.744 909.116 207.212 909.306 206.389 906.837C204.68 905.761 202.148 905.824 201.325 903.419C198.771 902.636 196.547 901.035 194.994 898.861H193.285C191.866 898.149 190.696 897.023 189.93 895.632H188.221C185.626 892.91 181.447 892.151 179.548 888.542C177.839 887.276 175.054 887.593 174.357 884.871C171.686 879.343 167.224 874.882 161.697 872.21C159.155 870.646 156.723 868.912 154.417 867.019C153.94 866.526 153.352 866.153 152.703 865.933C152.053 865.713 151.36 865.651 150.682 865.753C150.682 867.082 149.542 867.588 148.529 868.095V873.286C149.256 873.619 149.827 874.219 150.121 874.962C150.416 875.705 150.413 876.533 150.112 877.274C150.492 880.915 150.492 884.585 150.112 888.226C152.475 889.914 152.475 891.56 150.112 893.163V898.291C150.428 900.697 151.378 903.292 148.529 905.001V907.534C148.027 911.584 146.502 915.44 144.098 918.738C140.542 924.445 135.616 929.171 129.767 932.488C123.918 935.805 117.333 937.607 110.61 937.729C103.973 937.652 97.454 935.957 91.6191 932.792C83.5531 929.772 76.2488 925.018 70.2223 918.865C69.8296 918.723 69.4728 918.496 69.1774 918.201C68.882 917.905 68.6554 917.548 68.5132 917.156C68.111 917.031 67.7452 916.81 67.4474 916.512C67.1496 916.214 66.9287 915.849 66.8039 915.447C66.4111 915.304 66.0545 915.077 65.7591 914.782C65.4637 914.487 65.2369 914.13 65.0947 913.737C64.6926 913.612 64.3269 913.391 64.0291 913.094C63.7313 912.796 63.5105 912.43 63.3856 912.028C62.9834 911.903 62.6176 911.682 62.3198 911.385C62.022 911.087 61.8011 910.721 61.6763 910.319C61.2741 910.194 60.9084 909.973 60.6106 909.675C60.3129 909.377 60.092 909.012 59.9671 908.61C59.5649 908.485 59.1991 908.264 58.9013 907.966C58.6035 907.668 58.3829 907.302 58.258 906.9C57.8558 906.775 57.4899 906.555 57.1922 906.257C56.8944 905.959 56.6735 905.594 56.5487 905.191C54.6495 903.989 54.3963 901.773 53.1302 900.127H53.4468C52.5606 899.684 51.6109 899.304 51.5476 898.101V896.455L50.2816 895.062C49.4587 894.619 48.509 894.24 48.3824 893.1V891.391L47.1798 889.998L45.0906 888.036C42.3686 890.315 38.7603 891.138 36.7978 894.746C36.0056 896.02 35.6916 897.534 35.9119 899.018C36.1322 900.502 36.8725 901.86 38.0006 902.849C46.786 910.385 56.1642 917.202 66.0443 923.233C81.3005 934.121 96.9366 944.44 112.573 954.885C117.505 958.077 122.91 960.47 128.589 961.975C132.474 962.864 136.552 962.229 139.983 960.202C142.015 958.969 144.38 958.398 146.75 958.568C149.121 958.738 151.379 959.641 153.214 961.152C172.775 974.509 192.462 987.613 212.15 1000.84C233.167 1014.96 254.247 1029.01 275.454 1043.26C280.202 1046.49 284.633 1050.09 289.254 1053.51C291.407 1055.16 291.533 1056.61 289.254 1058.58C288.094 1059.48 287.139 1060.62 286.451 1061.92C285.764 1063.21 285.36 1064.64 285.266 1066.11C284.949 1071.55 289.381 1073.71 292.483 1076.11C301.409 1083.01 310.904 1089.22 320.273 1095.61C334.833 1105.42 349.203 1115.61 364.143 1124.73C367.243 1127.02 370.787 1128.63 374.548 1129.47C378.309 1130.31 382.204 1130.36 385.983 1129.6C389.781 1128.59 393.326 1127.2 394.529 1123.72C395.156 1121.87 395.194 1119.87 394.638 1118C394.083 1116.13 392.961 1114.48 391.427 1113.27C386.912 1109.84 383.447 1105.21 381.425 1099.91C380.918 1099.91 380.222 1099.91 379.842 1099.91C374.703 1103.46 368.547 1105.24 362.307 1104.98C358.889 1104.98 355.407 1104.98 351.925 1104.98C350.596 1106.24 350.406 1104.98 350.216 1104.16C347.684 1103.27 345.088 1102.57 342.619 1101.5C337.647 1099.99 333.051 1097.44 329.136 1094.03C327.733 1093.54 326.545 1092.58 325.781 1091.3C324.514 1091.3 323.502 1091.3 323.248 1089.72C316.942 1084.85 311.265 1079.22 306.346 1072.95C306.083 1072.89 305.834 1072.78 305.614 1072.62C305.394 1072.46 305.208 1072.26 305.067 1072.03C304.925 1071.8 304.831 1071.55 304.79 1071.28C304.749 1071.01 304.761 1070.74 304.827 1070.48C303.561 1069.15 301.598 1068.39 301.282 1066.3H300.459C299.383 1066.3 298.243 1066.3 299.509 1064.65L296.091 1057.88C294.698 1057.5 294.445 1056.55 294.698 1055.28C293.622 1054.4 292.419 1053.64 292.926 1051.93C292.293 1051.42 291.407 1051.23 291.47 1050.22V1048.57C290.837 1048.07 290.014 1047.88 290.077 1046.87V1045.16C289.444 1044.71 288.558 1044.46 288.621 1043.45V1041.74C287.861 1040.72 286.785 1039.9 287.039 1038.38V1036.74C286.026 1035.79 284.886 1034.96 285.456 1033.38V1031.67C284.506 1030.72 283.367 1029.9 283.873 1028.25V1024.9C283.177 1024.2 282.101 1023.7 282.481 1022.37C282.036 1020.43 282.036 1018.42 282.481 1016.48C280.075 1014.77 280.835 1012.17 280.771 1010.15C280.005 1002.52 280.649 994.818 282.671 987.423C283.907 980.63 287.33 974.428 292.419 969.761C293.144 969.121 293.735 968.344 294.159 967.475C294.583 966.606 294.83 965.662 294.888 964.697C294.888 962.798 292.609 964.254 291.533 963.431C290.457 962.608 289.191 961.912 288.811 960.392L287.418 959.949C285.709 959.949 285.013 958.936 284.38 957.67L282.354 956.531C280.645 956.531 279.948 955.581 279.315 954.315L277.353 953.176C275.581 953.176 274.884 952.226 274.251 950.897C268.261 947.572 262.526 943.805 257.096 939.628C255.64 940.071 255.197 938.932 254.564 938.109H252.918C248.866 936.21 248.107 934.818 247.157 933.615Z" fill="#181816"/>
<path d="M544.826 201.265V88.807C552.353 91.6745 556.923 101.352 558.267 105.832C559.163 143.02 559.163 217.394 551.994 217.394C545.901 214.526 544.676 205.446 544.826 201.265Z" fill="#262626"/>
<path d="M423.827 23.487V6.90955L547.038 91.5887V210.767C543.454 209.692 539.571 205.838 538.077 204.046C502.831 149.535 431.354 39.0787 427.412 33.3438C423.469 27.6089 423.379 24.383 423.827 23.487Z" fill="#697DFF"/>
<path d="M548.83 206.735V104.134C552.414 107.718 553.31 110.705 553.31 111.751V211.215C550.085 211.215 548.979 208.228 548.83 206.735Z" fill="#C4C4C4"/>
<path d="M563.168 221.52V563.373L555.103 556.204V221.52C550.802 219.369 551.817 212.559 552.863 209.423C553.012 183.586 553.221 128.955 552.863 117.127C552.504 105.299 543.454 96.069 538.973 92.9327C502.085 66.3492 427.322 12.4651 423.38 9.59767C418.451 6.01337 422.932 3.32519 425.172 1.085C426.964 -0.707153 429.204 0.338269 430.1 1.085C469.677 27.3699 550.354 80.8358 556.447 84.4201C564.512 87.1083 567.648 87.5563 570.336 96.5171C575.265 113.543 571.68 204.046 571.68 206.734C571.68 208.885 570.784 210.916 570.336 211.663L563.168 221.52Z" fill="black"/>
<path d="M99.8737 732.943L117.795 537.598C120.459 508.566 135.034 489.658 141.989 483.834C162.898 471.438 212.958 441.897 245.934 422.901C299.699 398.259 348.087 409.46 368.248 417.076C406.126 433.119 480.791 485.948 528.323 519.579L529.094 520.125C567.088 547.007 578.378 578.818 579.274 591.363C590.027 645.128 612.698 759.198 617.358 785.363C638.415 791.188 665.298 800.597 681.427 831.959C708.757 891.996 698.004 913.95 679.187 928.287C654.814 944.058 623.929 923.807 611.533 911.71C608.546 908.873 601.945 903.556 599.436 904.99C599.078 908.574 589.43 920.223 584.651 925.599C561.203 940.982 507.588 974.704 480.706 986.532C437.246 1002.66 431.422 999.526 407.676 997.733C390.202 995.941 391.546 998.181 393.339 1010.73C399.163 1022.38 397.819 1021.48 395.579 1028.65C405.884 1064.04 400.059 1093.61 376.761 1102.13C327.925 1111.54 299.251 1072.11 283.569 1036.26C268.157 996.837 282.524 974.137 291.634 967.715L173.352 892.444L163.047 877.659C163.794 878.107 162.061 876.942 149.158 868.698C154.086 896.029 154.086 925.151 125.412 935.456C90.4648 946.657 50.5895 916.639 31.7719 858.842C12.5062 775.059 89.1208 792.084 96.2894 794.324C93.4219 765.65 97.4841 741.456 99.8737 732.943Z" fill="black"/>
<path fill-rule="evenodd" clip-rule="evenodd" d="M117.795 537.599L99.8739 732.943C98.1446 739.104 95.5391 753.478 95.3184 771.819C97.5752 784.656 104.029 795.332 113.354 804.324C161.294 838.823 266.941 912.391 316.763 946.8C390.6 976.191 446.993 968.306 465.96 960.689C501.205 943.962 577.342 906.297 599.923 889.451C618.92 869.737 624.864 837.031 625.461 823.141L617.79 785.484C617.646 785.443 617.502 785.403 617.358 785.364C612.698 759.198 590.027 645.128 579.275 591.363C578.378 578.818 567.088 547.007 529.094 520.125L528.323 519.58C480.791 485.948 406.126 433.119 368.249 417.076C348.087 409.46 299.699 398.259 245.934 422.901C212.959 441.898 162.898 471.438 141.989 483.834C135.035 489.659 120.459 508.566 117.795 537.599Z" fill="white"/>
<path d="M342.749 749.215C334.506 697.96 300.933 672.601 288.985 666.328C288.985 664.835 289.791 661.848 293.017 661.848C350.724 700.558 418.916 686.938 445.798 675.289C481.193 657.367 553.955 619.911 561.84 613.46C572.593 600.198 576.476 584.636 577.073 578.513C585.437 621.375 603.776 710.505 613.812 761.76C623.49 814.449 588.274 854.355 569.009 863.017C563.333 866.601 537.646 881.028 480.297 910.061C416.138 938.377 369.726 906.028 364.255 874.218C360.223 850.77 350.993 800.471 342.749 749.215Z" fill="black"/>
<path d="M117.418 800.74C97.7045 784.252 93.6722 758.027 94.1202 746.975C99.4967 699.483 110.966 595.269 113.834 558.351C115.626 590.61 134.892 609.129 144.301 614.356C173.124 634.966 234.267 678.694 248.245 688.73C262.224 698.766 266.615 707.846 267.063 711.132C277.667 769.676 299.77 891.243 303.354 909.165C306.938 927.086 294.095 922.307 287.225 917.678C238.837 885.568 137.132 817.227 117.418 800.74Z" fill="black"/>
<ellipse cx="336.775" cy="1033.65" rx="55.0972" ry="81.2341" transform="rotate(-31.5495 336.775 1033.65)" fill="#181818"/>
<ellipse cx="326.43" cy="1039.76" rx="42.3865" ry="62.4937" transform="rotate(-31.5495 326.43 1039.76)" fill="#070707"/>
<ellipse cx="89.4578" cy="866.088" rx="55.0972" ry="81.2341" transform="rotate(-31.5495 89.4578 866.088)" fill="#181818"/>
<ellipse cx="79.1127" cy="872.189" rx="42.3865" ry="62.4937" transform="rotate(-31.5495 79.1127 872.189)" fill="#070707"/>
<path fill-rule="evenodd" clip-rule="evenodd" d="M617.404 785.771L624.117 822.693C623.759 840.731 618.527 877.783 601.774 906.565C625.263 932.765 656.863 943.266 678.569 929.939C704.5 914.017 706.492 870.116 683.018 831.883C665.97 804.118 640.18 786.977 617.404 785.771Z" fill="#181818"/>
<path fill-rule="evenodd" clip-rule="evenodd" d="M622.015 811.134L624.117 822.693C623.763 840.485 618.669 876.775 602.454 905.382C620.127 923.096 642.661 929.744 658.418 920.069C678.367 907.82 679.899 874.047 661.84 844.634C651.332 827.52 636.506 815.653 622.015 811.134Z" fill="#070707"/>
<path opacity="0.9" fill-rule="evenodd" clip-rule="evenodd" d="M594.995 911.147C604.356 897.491 610.687 881.2 614.825 865.705C616.878 867.933 618.789 870.447 620.49 873.217C630.195 889.024 629.372 907.174 618.651 913.757C612.002 917.839 603.107 916.513 594.995 911.147Z" fill="#2D2C29"/>
<path d="M134.871 560.346C106.217 536.107 125.687 500.054 139.004 485.057C196.761 445.577 251.693 419.593 267.122 412.982C318.093 399.21 350.697 407.932 377.331 421.245C427.384 448.331 528.868 519.029 561.93 547.033C589.85 577.516 577.521 610.688 548.154 626.913C524.888 639.767 472.661 667.954 449.885 677.87C373.473 706.884 313.654 684.144 293.296 669.148C252.427 642.98 163.525 584.585 134.871 560.346Z" fill="#697DFF"/>
<path d="M140.784 555.215C112.826 531.558 131.823 496.373 144.816 481.737C201.169 443.205 254.765 417.846 269.819 411.395C319.551 397.954 351.362 406.466 377.348 419.459C426.184 445.894 525.2 514.891 557.459 542.222C584.7 571.971 572.144 604.637 544.018 620.18C521.317 632.725 470.361 660.235 448.138 669.913C373.584 698.229 315.22 676.036 295.357 661.4C255.482 635.862 168.741 578.871 140.784 555.215Z" fill="#181816"/>
<path d="M164.388 532.089C140.369 511.725 150.541 479.01 167.853 468.837C198.263 450.967 259.025 418.74 271.959 413.187C314.687 401.616 345.307 404.042 367.634 415.227C409.591 437.982 494.662 497.377 522.377 520.904C545.781 546.513 543.604 571.274 517.584 585.681C498.08 596.481 447.546 622.493 428.453 630.824C364.4 655.199 314.256 636.095 297.191 623.496C262.932 601.512 188.408 552.453 164.388 532.089Z" fill="#2D2C29"/>
<path d="M432.429 760.645C431.954 757.381 433.531 754.16 436.401 752.533L571.21 676.128C576.106 673.353 582.261 676.367 583.071 681.937L594.786 762.464C595.26 765.728 593.683 768.949 590.813 770.576L456.004 846.981C451.108 849.755 444.953 846.742 444.143 841.172L432.429 760.645Z" fill="#C4C4C4"/>
<path d="M431.191 761.346C430.717 758.082 432.294 754.861 435.164 753.234L564.015 680.206C568.911 677.431 575.066 680.445 575.877 686.014L587.027 762.662C587.501 765.926 585.924 769.147 583.055 770.774L454.203 843.802C449.307 846.577 443.152 843.563 442.341 837.994L431.191 761.346Z" fill="white"/>
<path d="M540.854 744.085C540.67 740.764 541.328 737.45 542.767 734.451C544.206 731.452 546.379 728.865 549.084 726.93C552.566 724.144 560.035 725.98 560.858 730.411C561.681 734.842 563.264 736.742 567.189 735.792C571.114 734.843 572.443 731.171 572.506 727.943C572.797 725.27 572.392 722.568 571.328 720.098C570.265 717.629 568.581 715.477 566.439 713.852C564.298 712.227 561.772 711.183 559.108 710.824C556.444 710.464 553.732 710.8 551.236 711.8C546.869 713.655 542.93 716.388 539.663 719.829C536.396 723.271 533.871 727.346 532.245 731.804C529.784 736.732 528.567 742.187 528.7 747.693C528.635 747.964 528.635 748.246 528.7 748.516C529.27 751.745 530.092 754.847 533.701 755.986C535.726 756.493 540.031 751.048 540.411 748.326C540.918 746.934 540.854 745.541 540.854 744.085Z" fill="url(#paint0_linear)"/>
<path d="M502.049 767.697C501.984 763.329 500.224 759.158 497.141 756.063C494.058 752.968 489.894 751.193 485.526 751.111C481.78 751.501 478.223 752.95 475.271 755.289C468.109 760.206 462.873 767.455 460.458 775.8C459.065 781.307 455.9 787.448 459.698 793.651C460.648 795.171 460.838 796.564 462.99 796.627C463.963 796.797 464.965 796.664 465.86 796.245C466.755 795.826 467.499 795.141 467.991 794.285C469.685 791.378 470.416 788.01 470.08 784.662C469.975 781.618 470.551 778.589 471.767 775.796C472.983 773.003 474.807 770.517 477.107 768.52C477.774 767.773 478.583 767.166 479.486 766.733C480.389 766.299 481.369 766.049 482.369 765.996C483.369 765.944 484.37 766.089 485.314 766.424C486.258 766.76 487.126 767.278 487.869 767.95C489.311 769.186 490.219 770.933 490.401 772.825C490.626 774.064 491.217 775.208 492.096 776.111C492.976 777.013 494.105 777.632 495.338 777.889C496.794 778.332 501.669 773.015 502.049 771.052C502.112 769.935 502.112 768.814 502.049 767.697Z" fill="url(#paint1_linear)"/>
<defs>
<linearGradient id="paint0_linear" x1="9813.38" y1="-335696" x2="10117.1" y2="-335696" gradientUnits="userSpaceOnUse">
<stop stop-color="#687CFE"/>
<stop offset="0.18" stop-color="#6778FB"/>
<stop offset="0.3" stop-color="#656FF5"/>
<stop offset="0.49" stop-color="#6059E6"/>
<stop offset="0.72" stop-color="#5734CE"/>
<stop offset="0.99" stop-color="#4C02AC"/>
<stop offset="1" stop-color="#4C00AB"/>
</linearGradient>
<linearGradient id="paint1_linear" x1="10436" y1="-339788" x2="10744.9" y2="-339788" gradientUnits="userSpaceOnUse">
<stop stop-color="#687CFE"/>
<stop offset="0.18" stop-color="#6778FB"/>
<stop offset="0.3" stop-color="#656FF5"/>
<stop offset="0.49" stop-color="#6059E6"/>
<stop offset="0.72" stop-color="#5734CE"/>
<stop offset="0.99" stop-color="#4C02AC"/>
<stop offset="1" stop-color="#4C00AB"/>
</linearGradient>
</defs>
</svg>
