<svg viewBox="0 0 1246 1099" fill="none" xmlns="http://www.w3.org/2000/svg">
<path d="M211 711.5C129 692.7 154.5 652.333 177.5 634.5L643 553.5C682.5 568.5 767 601.4 789 613C811 624.6 801.167 632.167 793.5 634.5C759.833 654.5 677.1 702.6 615.5 735C553.9 767.4 502.5 756.5 484.5 747L327 694.5C315.167 707.5 275.4 729.1 211 711.5Z" fill="#C4C4C4"/>
<path d="M827.307 878.876L918.548 931.553C912.695 936.317 902.703 935.492 898.438 934.484C867.847 917.791 807.505 882.953 810.863 877.136C816.043 873.536 823.984 876.796 827.307 878.876Z" fill="#262626"/>
<path d="M1028.22 863.981L1041.67 871.746L915.254 932.045L818.561 876.22C821.113 873.815 826.058 872.47 828.211 872.097C888.948 869.036 1012.05 862.784 1018.55 862.272C1025.05 861.759 1027.7 863.198 1028.22 863.981Z" fill="#697DFF"/>
<path d="M820.993 879.562L904.237 927.623C899.65 928.852 896.806 928.18 895.958 927.69L815.259 881.099C816.771 878.482 819.712 878.984 820.993 879.562Z" fill="#C4C4C4"/>
<path d="M802.282 884.269L524.925 724.137L534.519 720.952L806.059 877.726C809.819 875.244 814.868 879.258 816.923 881.575C837.816 893.799 882.041 919.559 891.806 924.808C901.57 930.058 913.298 927.039 917.941 924.873C956.789 907.396 1035.53 871.979 1039.7 870.124C1044.92 867.804 1045 872.698 1045.77 875.565C1046.38 877.859 1044.48 879.187 1043.46 879.564C1003.59 899.361 922.425 939.772 916.663 943.037C910.704 948.321 908.872 950.656 900.342 948.639C884.22 944.663 812.471 899.361 810.29 898.101C808.545 897.094 807.317 895.416 806.921 894.702L802.282 884.269Z" fill="black"/>
<path d="M604.365 268.821L754.459 374.865C776.767 390.626 785.28 411.308 786.747 419.679C787.01 442.449 787.528 496.903 787.494 532.556C782.303 587.72 750.549 621.732 734.925 634.522C704.166 657.739 626.329 693.57 576.778 716.381L575.974 716.751C536.367 734.984 505.269 729.243 494.671 724.094C446.013 707.634 342.845 672.594 319.433 664.118C304.843 678.474 284.617 695.877 251.617 694.273C190.104 688.324 177.329 669.316 174.512 647.333C173.133 620.171 204.031 604.599 219.652 600.208C223.353 599.114 230.759 596.249 230.771 593.542C228.031 591.572 223.099 578.288 220.976 571.892C219.478 545.663 217.233 486.367 220.229 459.016C227.5 416.2 232.773 412.943 245.35 394.517C254.989 381.18 252.542 381.221 241.524 376.798C229.345 376.067 230.701 375.397 225.935 370.221C192.39 362.002 171.127 343.425 175.134 320.535C190.376 276.505 235.797 271.709 272.223 275.776C311.431 281.74 323.119 304.03 324.062 314.43L440.537 253.722L457.36 252.287C456.647 252.683 458.403 251.823 471.136 245.216C446.654 236.412 423.026 222.771 428.097 194.679C435.379 161.079 478.413 142.788 534.12 154.594C611.12 178.209 561.419 232.394 556.243 237.161C580.851 248.266 598.578 262.895 604.365 268.821Z" fill="black"/>
<path fill-rule="evenodd" clip-rule="evenodd" d="M754.459 374.865L604.365 268.821C600.176 264.532 589.735 255.685 574.957 246.914C563.485 242.732 551.8 242.968 540.137 246.321C489.691 269.056 380.515 320.311 329.26 344.615C270.827 390.753 250.809 440.201 248.104 459.157C245.165 495.588 240.06 575.003 243.15 601.215C250.246 625.862 273.998 646.006 284.987 652.996L319.133 664.412C319.233 664.314 319.333 664.216 319.433 664.118C342.844 672.594 446.013 707.633 494.671 724.094C505.269 729.243 536.366 734.984 575.974 716.751L576.778 716.381C626.329 693.57 704.166 657.738 734.925 634.522C750.549 621.732 782.302 587.719 787.494 532.556C787.528 496.903 787.01 442.449 786.747 419.679C785.279 411.308 776.767 390.626 754.459 374.865Z" fill="white"/>
<path d="M477.394 458.252C522.841 475.572 559.142 460.212 569.828 453.457C571.039 454.157 573.085 456.21 571.574 458.827C513.135 487.514 492.244 549.22 489.102 576.487C487.063 613.599 483.369 690.178 484.91 699.598C490.633 714.535 501.44 724.974 506.128 728.327C467.435 715.035 386.53 688.164 340.244 672.298C292.962 655.469 277.081 608.204 279.078 588.516C278.828 582.232 279.156 554.634 282.464 494.505C289.544 429.187 337.53 406.684 365.902 417.146C386.814 424.858 431.947 440.931 477.394 458.252Z" fill="black"/>
<path d="M541.141 251.298C563.752 243.027 586.919 252.04 595.675 257.58C631.689 284.189 710.868 342.31 739.478 361.93C712.466 348.274 688.416 355.23 679.768 360.415C649.545 374.146 585.426 403.27 570.736 409.91C556.045 416.55 546.621 415.859 543.746 414.684C491.28 395.864 382.295 356.852 366.075 351.365C349.856 345.878 359.75 337.696 366.724 334.291C415.442 310.073 518.53 259.569 541.141 251.298Z" fill="black"/>
<ellipse cx="249.418" cy="320.166" rx="51.6176" ry="76.1039" transform="rotate(88.4505 249.418 320.166)" fill="#181818"/>
<ellipse cx="249.314" cy="308.916" rx="39.7096" ry="58.547" transform="rotate(88.4505 249.314 308.916)" fill="#070707"/>
<ellipse cx="501.219" cy="198.001" rx="51.6176" ry="76.1039" transform="rotate(88.4505 501.219 198.001)" fill="#181818"/>
<ellipse cx="501.115" cy="186.751" rx="39.7096" ry="58.547" transform="rotate(88.4505 501.115 186.751)" fill="#070707"/>
<path fill-rule="evenodd" clip-rule="evenodd" d="M319.081 663.965L285.979 652.116C271.513 643.376 243.902 621.775 228.397 594.701C196.138 601.486 172.816 622.205 173.462 646.058C174.232 674.555 208.918 696.736 250.933 695.599C281.446 694.774 307.433 681.878 319.081 663.965Z" fill="#181818"/>
<path fill-rule="evenodd" clip-rule="evenodd" d="M296.342 655.825L285.98 652.115C271.71 643.495 244.653 622.363 229.039 595.806C206.388 601.848 190.44 617.016 190.908 634.332C191.501 656.255 218.185 673.319 250.507 672.444C269.315 671.935 285.888 665.465 296.342 655.825Z" fill="#070707"/>
<path opacity="0.9" fill-rule="evenodd" clip-rule="evenodd" d="M227.856 587.054C234.55 601.045 244.802 613.813 255.435 624.429C252.666 625.051 249.731 625.424 246.687 625.506C229.316 625.976 214.976 616.806 214.657 605.025C214.459 597.718 219.702 591.122 227.856 587.054Z" fill="#2D2C29"/>
<path d="M728.005 378.064C761.093 366.17 781.224 398.855 787.153 416.684C792.13 482.038 787.481 538.777 785.617 554.392C772.915 602.198 750.566 624.565 727.288 639.937C681.867 667.86 576.969 717.08 538.762 730.787C500.952 739.161 479.813 713.619 480.406 682.193C480.875 657.295 482.47 601.718 485.094 578.594C497.347 503.008 543.817 465.127 565.52 455.634C605.895 434.733 694.916 389.958 728.005 378.064Z" fill="#697DFF"/>
<path d="M729.398 385.265C761.688 373.663 781.337 405.558 787.125 422.955C791.99 486.725 787.459 542.088 785.641 557.324C773.251 603.97 751.443 625.791 728.729 640.788C684.406 668.028 582.044 716.043 544.76 729.414C507.863 737.579 487.241 712.092 487.805 681.991C488.261 657.697 489.811 603.468 492.369 580.904C504.317 507.153 549.662 470.195 570.841 460.936C610.24 440.546 697.109 396.867 729.398 385.265Z" fill="#181816"/>
<path d="M737.104 415.248C764.878 405.299 786.656 428.877 786.8 447.688C787.054 480.731 784.738 545.125 783.185 558.221C772.558 598.307 756.246 622.014 736.714 634.889C698.598 658.271 610.559 699.47 578.489 710.935C546.748 717.928 527.679 704.564 528.178 676.703C528.552 655.821 531.119 602.636 533.303 583.243C543.531 519.857 582.519 488.122 600.735 480.178C634.619 462.68 709.331 425.198 737.104 415.248Z" fill="#2D2C29"/>
<path d="M425.792 525.53C428.856 526.751 430.857 529.727 430.831 533.025L429.681 677.106C429.636 682.734 423.949 686.557 418.721 684.474L348.906 656.659C345.842 655.438 343.841 652.462 343.867 649.163L345.017 505.082C345.062 499.455 350.749 495.631 355.977 497.714L425.792 525.53Z" fill="#C4C4C4"/>
<path d="M425.803 524.198C428.867 525.418 430.868 528.395 430.841 531.693L429.743 669.359C429.698 674.986 424.01 678.81 418.782 676.727L352.38 650.271C349.316 649.05 347.315 646.074 347.341 642.775L348.439 505.11C348.484 499.482 354.172 495.659 359.4 497.742L425.803 524.198Z" fill="white"/>
<g clip-path="url(#clip0)">
<path d="M325.465 611.529C325.607 611.568 325.747 611.571 325.859 611.51C325.944 611.474 325.981 611.383 325.975 611.222L325.969 609.039L327.264 609.628L327.28 609.634C327.386 609.676 327.456 609.634 327.513 609.534C327.604 609.394 327.641 609.215 327.668 609.015C327.753 608.451 327.762 607.857 327.702 607.217C327.674 606.889 327.626 606.57 327.511 606.243C327.435 606.037 327.335 605.891 327.198 605.836L325.912 605.268L325.906 603.788L325.912 603.773C325.903 603.664 325.873 603.564 325.821 603.473C325.745 603.354 325.648 603.245 325.554 603.172C325.293 602.945 324.653 602.653 324.377 602.596C324.234 602.556 324.095 602.553 323.983 602.614C323.898 602.65 323.861 602.741 323.867 602.902L323.879 604.367L320.414 602.821C319.477 602.393 318.549 601.986 317.611 601.558C317.505 601.516 317.399 601.473 317.308 601.437C316.607 601.209 316.064 601.642 315.857 602.598C315.736 603.165 315.736 603.78 315.79 604.436C315.845 605.003 315.951 605.573 316.115 606.131C316.142 606.195 316.154 606.253 316.206 606.256C316.639 606.359 317.073 606.462 317.513 606.55C317.656 606.59 317.686 606.514 317.653 606.29C317.635 606.159 317.632 606.035 317.629 605.911C317.632 605.595 317.717 605.471 317.923 605.483C318.041 605.495 318.163 605.544 318.284 605.592L323.927 608.116L323.936 610.336L323.93 610.351C323.939 610.46 323.969 610.56 324.021 610.651C324.097 610.77 324.194 610.879 324.288 610.952C324.57 611.17 325.195 611.456 325.465 611.529Z" fill="white"/>
<path d="M323.133 581.831L322.569 581.569L327.093 583.592L327.108 583.598C327.214 583.64 327.284 583.598 327.341 583.498C327.432 583.358 327.469 583.179 327.496 582.979C327.581 582.415 327.59 581.821 327.53 581.181C327.503 580.853 327.454 580.534 327.339 580.207C327.263 580.001 327.163 579.855 327.026 579.8L315.938 574.833L315.922 574.827C315.816 574.784 315.746 574.827 315.689 574.927C315.598 575.066 315.561 575.245 315.534 575.445C315.449 576.009 315.44 576.604 315.5 577.244C315.528 577.572 315.576 577.89 315.691 578.218C315.767 578.424 315.867 578.57 316.004 578.624L316.468 578.828C316.149 579.14 315.91 579.519 315.743 579.98C315.576 580.441 315.506 580.923 315.506 581.451C315.515 582.088 315.606 582.74 315.794 583.413C315.982 584.087 316.249 584.739 316.616 585.361C316.967 585.977 317.404 586.556 317.908 587.057C318.427 587.564 319.009 587.955 319.649 588.247C320.229 588.514 320.76 588.639 321.236 588.636C321.712 588.633 322.113 588.512 322.428 588.251C322.759 587.997 323.014 587.624 323.187 587.148C323.366 586.656 323.448 586.056 323.448 585.352C323.439 584.803 323.37 584.23 323.209 583.62C323.057 583.032 322.854 582.44 322.578 581.855L322.408 581.487L322.575 581.554L323.133 581.831ZM317.869 583.241C317.52 582.662 317.338 582.061 317.332 581.461C317.329 581.161 317.357 580.872 317.436 580.587C317.499 580.296 317.633 580.051 317.818 579.808L320.925 581.193C321.392 582.048 321.625 582.828 321.631 583.516C321.649 584.878 320.97 585.257 319.598 584.638C318.8 584.3 318.233 583.827 317.869 583.241Z" fill="white"/>
<path d="M322.821 600.635C323.17 600.247 323.428 599.735 323.61 599.104C323.792 598.473 323.874 597.785 323.868 597.008C323.856 596.247 323.768 595.455 323.577 594.658C323.386 593.86 323.125 593.104 322.774 592.401C322.422 591.697 321.988 591.066 321.472 590.507C320.956 589.949 320.371 589.521 319.725 589.245C319.069 588.947 318.49 588.856 317.992 588.956C317.48 589.05 317.061 589.304 316.712 589.692C316.363 590.08 316.105 590.593 315.938 591.23C315.756 591.86 315.668 592.564 315.68 593.325C315.692 594.087 315.786 594.863 315.977 595.661C316.168 596.459 316.435 597.199 316.786 597.903C317.138 598.607 317.572 599.238 318.088 599.796C318.603 600.354 319.174 600.776 319.835 601.059C320.49 601.356 321.07 601.448 321.568 601.348C322.059 601.263 322.472 601.024 322.821 600.635ZM318.14 596.105C317.727 595.553 317.527 594.91 317.524 594.169C317.527 593.414 317.716 592.944 318.104 592.765C318.498 592.571 319.039 592.629 319.724 592.939C320.41 593.249 320.944 593.674 321.356 594.226C321.754 594.772 321.969 595.421 321.966 596.176C321.969 596.917 321.787 597.371 321.371 597.574C320.976 597.768 320.436 597.71 319.745 597.416C319.095 597.103 318.546 596.672 318.14 596.105Z" fill="white"/>
<path d="M315.111 544.453C315.111 544.013 315.145 543.622 315.224 543.249C315.436 542.191 316.055 541.7 316.832 541.958C316.938 542 317.044 542.043 317.15 542.085L321.613 544.083C321.704 544.12 321.783 544.274 321.78 544.414C321.777 544.553 321.704 544.647 321.619 544.596L317.156 542.598C317.05 542.555 316.944 542.513 316.853 542.476C316.219 542.258 315.718 542.673 315.554 543.522C315.457 544.029 315.43 544.581 315.493 545.257C315.545 545.788 315.639 546.301 315.775 546.795C316.097 546.871 316.418 546.947 316.74 547.023L317.016 547.081C317.016 547.081 317.016 547.081 317.031 547.087C317.037 547.072 317.022 547.066 317.028 547.05C317.01 546.92 316.998 546.774 317.007 546.62C317.022 546.186 317.153 545.992 317.432 545.998C317.571 546.001 317.702 546.071 317.838 546.126L322.996 548.454C323.026 548.467 323.063 548.464 323.108 548.394C323.166 548.294 323.199 548.166 323.248 547.957C323.324 547.46 323.336 546.902 323.282 546.247C323.26 545.992 323.212 545.673 323.115 545.388C323.075 545.267 323.033 545.197 322.957 545.167C322.942 545.161 322.942 545.161 322.927 545.154C322.842 545.103 322.763 544.948 322.766 544.809C322.769 544.669 322.836 544.59 322.927 544.627C323.118 544.721 323.282 544.927 323.388 545.234C323.531 545.625 323.57 546.01 323.603 546.323C323.67 547.035 323.649 547.66 323.563 548.224C323.527 548.403 323.481 548.649 323.372 548.834C323.275 548.988 323.148 549.043 322.996 548.982L322.981 548.976L317.832 546.669C317.711 546.62 317.611 546.562 317.523 546.562C317.383 546.559 317.365 546.605 317.353 546.811C317.347 546.914 317.371 547.029 317.38 547.138C317.398 547.269 317.398 547.445 317.335 547.56C317.271 547.675 317.168 547.669 317.092 547.639L316.816 547.581C316.479 547.499 316.121 547.426 315.784 547.344C315.672 547.317 315.575 547.207 315.52 546.992C315.363 546.419 315.238 545.806 315.181 545.202C315.123 544.951 315.102 544.696 315.111 544.453Z" fill="white"/>
<path d="M315.332 570.104C315.332 569.664 315.365 569.273 315.444 568.9C315.657 567.841 316.276 567.35 317.052 567.609C317.158 567.651 317.265 567.694 317.371 567.736L321.834 569.734C321.925 569.77 322.004 569.925 322 570.065C321.997 570.204 321.925 570.298 321.84 570.247L317.377 568.249C317.271 568.206 317.164 568.164 317.073 568.127C316.439 567.909 315.939 568.324 315.775 569.173C315.677 569.68 315.65 570.232 315.714 570.908C315.765 571.439 315.859 571.951 315.996 572.446C316.317 572.522 316.639 572.598 316.96 572.674L317.237 572.732C317.237 572.732 317.237 572.732 317.252 572.738C317.258 572.722 317.243 572.716 317.249 572.701C317.23 572.571 317.218 572.425 317.227 572.271C317.243 571.837 317.373 571.643 317.652 571.649C317.792 571.652 317.922 571.722 318.059 571.777L323.217 574.105C323.247 574.118 323.283 574.114 323.329 574.045C323.386 573.945 323.42 573.817 323.468 573.608C323.544 573.111 323.557 572.553 323.502 571.897C323.481 571.643 323.432 571.324 323.335 571.039C323.296 570.918 323.253 570.848 323.178 570.817C323.162 570.811 323.162 570.811 323.147 570.805C323.062 570.754 322.983 570.599 322.987 570.459C322.99 570.32 323.056 570.241 323.147 570.278C323.338 570.372 323.502 570.578 323.608 570.884C323.751 571.276 323.79 571.661 323.824 571.973C323.89 572.686 323.869 573.311 323.784 573.875C323.747 574.054 323.702 574.3 323.593 574.485C323.496 574.639 323.368 574.694 323.216 574.633L323.201 574.627L318.053 572.319C317.931 572.271 317.831 572.213 317.743 572.213C317.604 572.21 317.586 572.256 317.573 572.462C317.567 572.565 317.592 572.68 317.601 572.789C317.619 572.92 317.619 573.096 317.555 573.211C317.491 573.326 317.388 573.32 317.312 573.29L317.036 573.232C316.699 573.15 316.341 573.077 316.005 572.995C315.892 572.968 315.795 572.858 315.741 572.643C315.583 572.07 315.459 571.457 315.401 570.853C315.344 570.601 315.322 570.347 315.332 570.104Z" fill="white"/>
<path d="M315.039 537.071C315.036 536.594 315.073 536.152 315.134 535.736L315.137 535.685C315.182 535.439 315.225 535.157 315.373 535.005C315.467 534.902 315.777 534.745 315.804 534.72L318.893 533.072C318.896 533.02 318.899 532.969 318.89 532.947C318.887 532.911 318.884 532.875 318.881 532.838L315.79 531.46L315.774 531.454L315.759 531.448C315.538 531.341 315.386 531.105 315.256 530.771C315.092 530.301 315.04 529.858 315.001 529.473C314.922 528.614 314.941 527.865 315.053 527.189C315.086 526.973 315.144 526.698 315.287 526.473C315.39 526.303 315.517 526.249 315.66 526.288L315.675 526.294L315.69 526.3L315.705 526.307L315.721 526.313L328.241 531.924C328.241 531.924 328.241 531.924 328.257 531.93C328.478 532.036 328.666 532.27 328.791 532.619C328.954 533.089 329.006 533.532 329.045 533.917C329.124 534.775 329.106 535.524 328.993 536.201C328.96 536.416 328.902 536.692 328.76 536.916C328.65 537.101 328.508 537.15 328.341 537.083L328.326 537.077L321.417 533.977C321.414 534.028 321.424 534.05 321.427 534.086C321.43 534.122 321.417 534.153 321.43 534.21L324.569 538.634C324.603 538.683 324.909 539.104 325.006 539.302C325.17 539.596 325.218 539.914 325.264 540.197L325.276 540.254C325.4 541.043 325.427 541.81 325.36 542.593C325.324 542.948 325.284 543.354 325.121 543.675L325.115 543.691C325.033 543.851 324.847 544.27 324.517 543.821L320.206 537.837L315.964 539.992C315.64 540.143 315.421 539.546 315.358 539.309L315.348 539.288C315.185 538.818 315.133 538.375 315.094 537.99C315.054 537.692 315.042 537.371 315.039 537.071ZM319.248 533.284C319.254 533.357 319.245 533.512 319.127 533.588L315.995 535.254C315.883 535.315 315.674 535.442 315.619 535.491C315.537 535.563 315.51 535.764 315.482 535.964L315.479 536.015C315.376 536.625 315.367 537.307 315.434 538.108C315.461 538.436 315.506 538.806 315.64 539.176L315.649 539.197C315.685 539.282 315.737 539.461 315.776 539.494C315.776 539.494 315.776 539.494 315.797 539.485L320.046 537.316L320.067 537.307C320.109 537.288 320.161 537.291 320.206 537.31C320.252 537.328 320.291 537.361 320.34 537.416C320.349 537.437 320.364 537.443 320.373 537.464L324.708 543.475C324.717 543.496 324.732 543.502 324.732 543.502C324.769 543.499 324.817 543.378 324.842 543.317L324.848 543.302C324.966 543.051 325.012 542.717 325.03 542.408C325.094 541.677 325.057 540.976 324.954 540.266L324.948 540.193C324.915 539.969 324.882 539.744 324.797 539.605C324.736 539.493 324.527 539.18 324.411 539.028L321.244 534.541C321.12 534.368 321.12 534.192 321.129 534.125C321.129 534.037 321.132 533.986 321.129 533.949C321.132 533.898 321.123 533.877 321.123 533.701C321.126 533.649 321.123 533.525 321.19 533.446C321.257 533.367 321.342 533.419 321.372 533.431L321.463 533.467L328.386 536.573C328.432 536.592 328.483 536.595 328.541 536.495C328.611 536.364 328.672 536.213 328.708 535.946C328.811 535.336 328.821 534.654 328.748 533.868C328.721 533.541 328.675 533.17 328.542 532.8C328.484 532.637 328.417 532.539 328.311 532.497C328.311 532.497 328.311 532.497 328.296 532.491L315.705 526.834C315.66 526.816 315.617 526.834 315.566 526.919C315.496 527.05 315.435 527.201 315.399 527.468C315.296 528.078 315.286 528.76 315.353 529.561C315.38 529.888 315.426 530.259 315.559 530.629C315.617 530.792 315.684 530.89 315.79 530.932L318.981 532.368C318.981 532.368 318.997 532.374 319.012 532.38C319.012 532.38 319.012 532.38 319.027 532.386C319.072 532.405 319.121 532.459 319.172 532.55C319.242 532.684 319.239 532.823 319.242 532.86C319.242 533.036 319.242 533.036 319.248 533.108C319.236 533.139 319.233 533.19 319.248 533.284Z" fill="white"/>
<path d="M315.33 560.568C315.318 558.927 315.877 557.708 316.808 557.36C315.874 556.176 315.282 554.444 315.271 552.803C315.253 550.386 316.521 548.976 318.096 549.659C318.096 549.659 318.096 549.659 318.111 549.665L318.126 549.671L322.932 551.824C323.129 551.903 323.278 552.103 323.384 552.41C323.511 552.795 323.557 553.165 323.596 553.462C323.654 554.154 323.638 554.764 323.559 555.313C323.523 555.492 323.483 555.722 323.374 555.907C323.277 556.062 323.156 556.101 323.004 556.04L322.989 556.034L318.541 554.042C318.177 553.897 317.91 554.212 317.904 554.755C317.913 555.304 318.21 555.88 318.568 556.041C318.568 556.041 318.568 556.041 318.583 556.047L322.985 558.021C323.177 558.115 323.331 558.3 323.437 558.606C323.565 558.992 323.61 559.362 323.644 559.674C323.701 560.366 323.701 560.981 323.607 561.524C323.57 561.703 323.531 561.934 323.422 562.119C323.325 562.273 323.203 562.313 323.051 562.252L318.604 560.26C318.422 560.187 318.27 560.215 318.149 560.342C318.027 560.469 317.957 560.688 317.967 560.973C317.976 561.522 318.258 562.092 318.616 562.253L323.048 564.239C323.239 564.333 323.394 564.518 323.5 564.824C323.628 565.21 323.673 565.58 323.706 565.892C323.764 566.584 323.764 567.199 323.67 567.742C323.633 567.921 323.594 568.152 323.484 568.337C323.387 568.491 323.266 568.531 323.129 568.476C323.129 568.476 323.129 568.476 323.114 568.47L318.309 566.317L318.293 566.311L318.278 566.305C316.67 565.573 315.342 563.001 315.33 560.568ZM317.378 557.606C317.375 557.657 317.378 557.694 317.345 557.733C317.327 557.779 317.3 557.803 317.263 557.806C316.271 557.954 315.655 559.097 315.658 560.717C315.676 562.87 316.846 565.134 318.248 565.765L318.263 565.771L318.278 565.777L323.069 567.924L323.084 567.93C323.114 567.942 323.151 567.939 323.19 567.885C323.248 567.785 323.296 567.663 323.324 567.463C323.4 566.966 323.421 566.429 323.354 565.804C323.333 565.549 323.294 565.252 323.197 564.967C323.157 564.845 323.109 564.791 323.033 564.76C323.033 564.76 323.033 564.76 323.018 564.754L318.6 562.775C318.6 562.775 318.6 562.775 318.585 562.769C318.585 562.769 318.585 562.769 318.57 562.763L318.54 562.75L318.525 562.744C318.003 562.465 317.587 561.613 317.578 560.8C317.581 559.956 318.018 559.48 318.552 559.729L323 561.721C323.03 561.733 323.067 561.73 323.106 561.676C323.164 561.576 323.212 561.454 323.24 561.254C323.316 560.757 323.337 560.22 323.27 559.595C323.249 559.34 323.21 559.043 323.113 558.758C323.073 558.637 323.025 558.582 322.949 558.552C322.949 558.552 322.949 558.552 322.934 558.546L318.486 556.554L318.471 556.548C317.943 556.284 317.512 555.425 317.509 554.597C317.5 553.784 317.922 553.302 318.459 553.499L318.474 553.505L318.49 553.512C318.49 553.512 318.49 553.512 318.505 553.518L322.952 555.509C322.983 555.522 323.019 555.519 323.043 555.458C323.101 555.358 323.15 555.237 323.177 555.036C323.253 554.539 323.274 554.002 323.208 553.377C323.186 553.123 323.147 552.825 323.05 552.54C323.011 552.419 322.962 552.364 322.886 552.334C322.886 552.334 322.886 552.334 322.871 552.328L318.05 550.169C316.642 549.552 315.514 550.789 315.531 552.943C315.549 554.569 316.198 556.289 317.193 557.321C317.242 557.375 317.284 557.445 317.29 557.518C317.366 557.548 317.369 557.584 317.378 557.606Z" fill="white"/>
<path d="M325.405 546.129C325.402 545.741 325.606 545.541 325.842 545.653C326.285 545.866 326.698 546.33 327.013 546.949C327.338 547.589 327.508 548.308 327.504 548.975C327.498 549.342 327.31 549.549 327.073 549.436C326.837 549.324 326.643 548.929 326.649 548.562C326.646 548.262 326.567 547.932 326.424 547.628C326.267 547.319 326.057 547.094 325.851 546.994C325.599 546.876 325.399 546.496 325.405 546.129Z" fill="white"/>
<path d="M325.381 549.884L325.387 549.869C325.393 549.502 325.581 549.296 325.833 549.414C326.054 549.52 326.242 549.49 326.397 549.323C326.552 549.156 326.64 548.893 326.634 548.556C326.64 548.189 326.828 547.983 327.065 548.095C327.301 548.207 327.496 548.602 327.489 548.969C327.48 549.651 327.307 550.215 326.976 550.558C326.652 550.885 326.239 550.949 325.796 550.736C325.575 550.63 325.396 550.242 325.381 549.884Z" fill="white"/>
<path d="M325.617 571.759C325.623 571.744 325.623 571.744 325.617 571.759C325.614 571.37 325.817 571.17 326.054 571.283C326.497 571.495 326.909 571.959 327.225 572.578C327.549 573.219 327.725 573.922 327.716 574.605C327.71 574.972 327.522 575.178 327.285 575.066C327.048 574.953 326.854 574.559 326.86 574.192C326.857 573.892 326.778 573.561 326.636 573.258C326.478 572.948 326.269 572.724 326.063 572.623C325.811 572.505 325.617 572.111 325.617 571.759Z" fill="white"/>
<path d="M325.598 575.499L325.604 575.483C325.61 575.116 325.798 574.91 326.05 575.029C326.272 575.135 326.46 575.105 326.615 574.938C326.769 574.771 326.857 574.507 326.851 574.171C326.858 573.804 327.046 573.598 327.282 573.71C327.519 573.822 327.713 574.217 327.707 574.584C327.698 575.266 327.525 575.83 327.194 576.173C326.869 576.5 326.457 576.564 326.014 576.351C325.792 576.245 325.607 575.872 325.598 575.499Z" fill="white"/>
</g>
<circle cx="871.5" cy="359.5" r="285.5" fill="#FF6359" stroke="white" stroke-width="20"/>
<path d="M839.909 203.88C839.412 188.632 851.638 176 866.895 176H877.045C892.324 176 904.559 188.668 904.028 203.939L897.877 380.793C897.388 394.854 885.847 406 871.777 406C857.686 406 846.135 394.82 845.676 380.736L839.909 203.88Z" fill="white"/>
<circle cx="872" cy="486" r="45" fill="white"/>
<rect x="417.501" y="543.698" width="8.9074" height="50.1627" rx="4.4537" transform="rotate(50.3087 417.501 543.698)" fill="#697DFF"/>
<rect x="411.6" y="607.206" width="8.9074" height="50.1627" rx="4.4537" transform="rotate(50.3087 411.6 607.206)" fill="#697DFF"/>
<rect x="381.6" y="546.688" width="8.9074" height="50.1627" rx="4.4537" transform="rotate(-39.6913 381.6 546.688)" fill="#697DFF"/>
<rect x="375.699" y="610.195" width="8.9074" height="50.1627" rx="4.4537" transform="rotate(-39.6913 375.699 610.195)" fill="#697DFF"/>
<defs>
<clipPath id="clip0">
<rect width="75.506" height="42.2556" fill="white" transform="translate(354.615 541.885) rotate(111.819)"/>
</clipPath>
</defs>
</svg>
