<svg width="703" height="1064" viewBox="0 0 703 1064" fill="none" xmlns="http://www.w3.org/2000/svg">
<path opacity="0.16" d="M314.47 940.113V942.655C313.414 944.387 312.824 946.362 312.757 948.389C312.69 950.416 313.149 952.426 314.088 954.224C314.278 954.598 314.377 955.012 314.377 955.432C314.377 955.851 314.278 956.265 314.088 956.639C311.413 961.821 309.915 967.53 309.702 973.357C307.487 985.694 308.969 998.41 313.961 1009.91C304.852 1010.66 295.687 1010.43 286.628 1009.21C279.7 1008.38 272.707 1007.43 265.715 1007.05C258.344 1006.54 251.116 1004.76 244.358 1001.77C238.001 998.846 230.755 996.876 224.017 994.333C213.798 990.072 203.972 984.925 194.65 978.951C174.882 967.382 154.986 956.067 135.217 944.499C127.863 939.809 121.043 934.331 114.876 928.163C112.397 925.874 109.664 923.84 107.312 921.425C103.736 918.46 101.456 914.219 100.955 909.601C100.839 908.769 100.511 907.981 100.002 907.313C96.5205 900.293 94.0999 892.796 92.8193 885.065C92.5654 883.602 91.916 882.236 90.9411 881.116C89.9663 879.995 88.7033 879.163 87.2892 878.709C84.2381 877.438 80.424 877.183 79.5977 872.352C79.2163 869.937 75.4659 868.666 72.7962 869.683C64.4057 872.925 56.2058 876.866 47.7517 879.917C44.8913 881.315 41.9673 882.587 39.0434 883.731C32.9144 885.494 26.3586 885.02 20.5462 882.396C19.6707 882.028 18.8767 881.491 18.2102 880.814C17.5438 880.138 17.0181 879.337 16.6634 878.456C16.3087 877.575 16.1321 876.633 16.1439 875.683C16.1557 874.734 16.3556 873.796 16.7321 872.925C17.1452 871.93 17.7751 871.039 18.5757 870.318C23.6524 865.493 29.2361 861.23 35.2296 857.605C35.9288 857.605 36.8188 857.605 37.2637 857.605C41.0141 859.894 45.7813 858.114 49.4681 860.847C49.9552 861.114 50.5017 861.254 51.0572 861.254C51.6127 861.254 52.1592 861.114 52.6463 860.847C55.8246 857.669 60.2743 858.877 63.961 857.86C75.2203 854.491 85.465 848.374 93.7729 840.061H94.0907L95.7434 838.345L97.4594 836.693L99.1121 834.976L100.829 833.324C108.647 829.637 109.727 829.891 113.033 836.12C118.064 844.392 124.752 851.533 132.675 857.097C140.341 862.64 148.392 867.632 156.765 872.035C169.478 879.599 182.891 886.527 195.477 894.664C202.373 898.918 209.503 902.781 216.834 906.233C225.063 910.685 233.706 914.326 242.641 917.102C248.998 919.009 255.863 921.043 262.728 922.378C269.823 924.292 277.121 925.359 284.467 925.556C285.58 925.608 286.686 925.757 287.772 926.001C288.187 926.424 288.681 926.76 289.227 926.989C289.773 927.219 290.359 927.337 290.951 927.337C291.542 927.337 292.129 927.219 292.674 926.989C293.22 926.76 293.714 926.424 294.129 926.001C295.621 925.926 297.107 925.756 298.578 925.493C300.485 925.175 302.774 926.573 304.299 924.348C305.943 923.619 307.81 923.571 309.489 924.214C311.169 924.857 312.525 926.14 313.262 927.781C314.498 929.563 315.258 931.631 315.47 933.79C315.681 935.948 315.337 938.125 314.47 940.113Z" fill="#181816"/>
<path opacity="0.16" d="M454.255 864.913H455.972C457.561 864.278 458.323 862.879 459.34 861.671H461.057C462.646 861.099 463.409 859.637 464.426 858.43H466.142C469.077 856.472 471.9 854.349 474.596 852.073C477.838 852.899 478.219 849.086 480.507 848.45C484.256 846.986 487.563 844.578 490.106 841.458C491.822 840.314 494.365 840.504 495.191 838.025C496.907 836.945 499.45 837.008 500.276 834.593C502.84 833.807 505.074 832.199 506.633 830.016H508.349C509.774 829.301 510.949 828.171 511.718 826.774H513.434C516.04 824.041 520.236 823.278 522.143 819.655C523.859 818.384 526.655 818.702 527.355 815.968C530.037 810.418 534.518 805.938 540.068 803.255C542.619 801.685 545.062 799.944 547.378 798.043C547.856 797.548 548.446 797.174 549.099 796.953C549.751 796.732 550.447 796.669 551.128 796.772C551.128 798.107 552.272 798.615 553.289 799.124V804.336C552.559 804.67 551.987 805.273 551.691 806.019C551.394 806.765 551.398 807.597 551.7 808.341C551.319 811.996 551.319 815.681 551.7 819.337C549.327 821.032 549.327 822.685 551.7 824.295V829.444C551.382 831.86 550.429 834.466 553.289 836.182V838.725C553.794 842.792 555.325 846.663 557.739 849.975C561.309 855.705 566.256 860.452 572.129 863.782C578.002 867.113 584.614 868.922 591.364 869.045C598.029 868.967 604.575 867.265 610.434 864.087C618.533 861.055 625.868 856.281 631.919 850.103C632.313 849.96 632.671 849.732 632.968 849.436C633.265 849.139 633.492 848.781 633.635 848.386C634.039 848.261 634.406 848.039 634.705 847.74C635.004 847.441 635.226 847.074 635.351 846.67C635.746 846.528 636.104 846.3 636.4 846.003C636.697 845.706 636.925 845.348 637.067 844.954C637.471 844.829 637.839 844.607 638.138 844.308C638.437 844.009 638.658 843.641 638.784 843.238C639.188 843.112 639.555 842.891 639.854 842.592C640.153 842.293 640.375 841.925 640.5 841.522C640.904 841.396 641.271 841.174 641.57 840.875C641.869 840.576 642.091 840.209 642.216 839.805C642.62 839.68 642.987 839.458 643.286 839.159C643.585 838.86 643.807 838.493 643.932 838.089C644.336 837.963 644.704 837.742 645.003 837.443C645.302 837.144 645.523 836.777 645.649 836.373C647.556 835.165 647.81 832.94 649.081 831.287H648.763C649.653 830.842 650.607 830.461 650.67 829.253V827.601L651.942 826.202C652.768 825.757 653.722 825.376 653.849 824.232V822.515L655.056 821.117L657.154 819.147C659.887 821.435 663.51 822.261 665.481 825.884C666.276 827.164 666.592 828.684 666.371 830.174C666.149 831.664 665.406 833.027 664.273 834.021C655.452 841.588 646.035 848.433 636.114 854.489C620.795 865.422 605.094 875.783 589.394 886.271C584.442 889.476 579.014 891.879 573.312 893.39C569.411 894.283 565.316 893.646 561.87 891.61C559.831 890.372 557.456 889.798 555.076 889.969C552.696 890.14 550.427 891.047 548.585 892.564C528.944 905.976 509.175 919.134 489.406 932.419C468.303 946.594 447.136 960.705 425.842 975.008C421.074 978.249 416.625 981.872 411.985 985.305C409.823 986.958 409.696 988.42 411.985 990.39C413.149 991.296 414.109 992.438 414.799 993.742C415.489 995.046 415.895 996.482 415.989 997.954C416.307 1003.42 411.857 1005.58 408.743 1008C399.78 1014.93 390.246 1021.16 380.838 1027.58C366.218 1037.43 351.789 1047.66 336.788 1056.82C333.675 1059.11 330.116 1060.74 326.34 1061.58C322.563 1062.42 318.652 1062.47 314.858 1061.71C311.044 1060.69 307.484 1059.29 306.276 1055.8C305.647 1053.94 305.608 1051.94 306.166 1050.06C306.724 1048.18 307.851 1046.52 309.391 1045.31C313.925 1041.86 317.404 1037.22 319.434 1031.9C319.943 1031.9 320.642 1031.9 321.024 1031.9C326.184 1035.46 332.365 1037.25 338.631 1036.98C342.063 1036.98 345.56 1036.98 349.056 1036.98C350.39 1038.25 350.581 1036.98 350.772 1036.16C353.314 1035.27 355.921 1034.57 358.4 1033.49C363.393 1031.97 368.007 1029.42 371.939 1025.99C373.348 1025.5 374.54 1024.53 375.308 1023.25C376.579 1023.25 377.596 1023.25 377.85 1021.66C384.182 1016.77 389.883 1011.11 394.822 1004.82C395.087 1004.76 395.337 1004.65 395.558 1004.49C395.778 1004.33 395.965 1004.13 396.107 1003.9C396.249 1003.67 396.344 1003.41 396.385 1003.14C396.426 1002.88 396.414 1002.6 396.348 1002.34C397.619 1001.01 399.59 1000.24 399.907 998.145H400.734C401.814 998.145 402.959 998.145 401.687 996.492L405.12 989.691C406.518 989.31 406.772 988.356 406.518 987.085C407.599 986.195 408.807 985.432 408.298 983.716C408.934 983.207 409.823 983.017 409.76 982V980.347C410.396 979.838 411.222 979.647 411.158 978.63V976.914C411.794 976.469 412.684 976.215 412.62 975.198V973.482C413.383 972.465 414.464 971.638 414.209 970.113V968.46C415.227 967.507 416.371 966.681 415.799 965.091V963.375C416.752 962.422 417.896 961.595 417.388 959.942V956.574C418.087 955.874 419.168 955.366 418.786 954.031C419.232 952.086 419.232 950.065 418.786 948.119C421.202 946.403 420.439 943.797 420.502 941.763C421.272 934.104 420.626 926.369 418.595 918.943C417.354 912.122 413.916 905.894 408.806 901.209C408.079 900.566 407.485 899.786 407.06 898.913C406.634 898.041 406.386 897.093 406.328 896.123C406.328 894.217 408.616 895.678 409.696 894.852C410.777 894.026 412.048 893.327 412.43 891.801L413.828 891.356C415.544 891.356 416.243 890.339 416.879 889.068L418.913 887.924C420.629 887.924 421.329 886.97 421.964 885.699L423.935 884.555C425.715 884.555 426.414 883.601 427.049 882.266C433.064 878.928 438.822 875.146 444.276 870.952C445.738 871.397 446.183 870.253 446.818 869.426H448.471C452.539 867.519 453.302 866.121 454.255 864.913Z" fill="#181816"/>
<path d="M602.145 663.415L584.149 467.266C581.475 438.113 566.839 419.128 559.856 413.28C538.861 400.833 488.594 371.171 455.483 352.096C401.497 327.352 352.909 338.599 332.665 346.247C294.631 362.356 219.658 415.403 171.93 449.173L171.156 449.72C133.006 476.713 121.669 508.655 120.769 521.252C109.972 575.238 87.2082 689.778 82.5294 716.051C61.3849 721.9 34.3918 731.348 18.196 762.839C-9.24683 823.124 1.55035 845.168 20.4454 859.564C44.9191 875.4 75.9311 855.065 88.3779 842.919C91.3771 840.069 98.0054 834.731 100.525 836.17C100.885 839.769 110.572 851.466 115.371 856.865C138.915 872.311 192.751 906.172 219.744 918.049C263.383 934.245 269.231 931.096 293.075 929.296C310.62 927.497 309.271 929.746 307.471 942.343C301.623 954.04 302.972 953.14 305.222 960.338C294.874 995.879 300.723 1025.57 324.117 1034.12C373.154 1043.57 401.947 1003.98 417.693 967.986C433.169 928.396 418.742 905.602 409.595 899.154L528.364 823.574L538.711 808.727C537.961 809.177 539.701 808.008 552.658 799.73C547.709 827.173 547.709 856.415 576.501 866.762C611.592 878.01 651.632 847.867 670.527 789.832C689.872 705.704 612.942 722.8 605.744 725.049C608.623 696.257 604.544 671.963 602.145 663.415Z" fill="black"/>
<path fill-rule="evenodd" clip-rule="evenodd" d="M584.15 467.265L602.145 663.415C603.881 669.601 606.498 684.034 606.719 702.451C604.453 715.341 597.973 726.06 588.61 735.089C540.472 769.73 434.389 843.601 384.362 878.152C310.222 907.665 253.596 899.747 234.551 892.099C199.16 875.303 122.71 837.483 100.036 820.567C80.961 800.772 74.9926 767.931 74.3927 753.985L82.0954 716.171C82.2404 716.131 82.3851 716.091 82.5295 716.051C87.2083 689.778 109.972 575.237 120.77 521.251C121.669 508.655 133.006 476.713 171.157 449.72L171.931 449.172C219.658 415.402 294.631 362.355 332.665 346.247C352.91 338.599 401.497 327.352 455.483 352.095C488.594 371.17 538.861 400.833 559.856 413.279C566.839 419.128 581.475 438.113 584.15 467.265Z" fill="white"/>
<path d="M358.269 679.754C366.547 628.287 400.258 602.824 412.255 596.526C412.255 595.026 411.446 592.027 408.206 592.027C350.261 630.897 281.789 617.22 254.796 605.523C219.255 587.528 146.194 549.918 138.276 543.439C127.479 530.123 123.58 514.497 122.98 508.348C114.582 551.387 96.1672 640.884 86.0898 692.351C76.3723 745.257 111.733 785.327 131.078 794.024C136.777 797.624 162.57 812.11 220.155 841.262C284.578 869.695 331.182 837.213 336.675 805.272C340.724 781.728 349.991 731.221 358.269 679.754Z" fill="black"/>
<path d="M584.528 731.491C604.323 714.935 608.372 688.602 607.922 677.505C602.524 629.817 591.006 525.174 588.127 488.104C586.328 520.495 566.983 539.091 557.535 544.339C528.593 565.034 467.199 608.942 453.162 619.02C439.126 629.097 434.717 638.215 434.267 641.514C423.62 700.299 401.426 822.367 397.826 840.363C394.227 858.358 407.124 853.559 414.022 848.91C462.61 816.669 564.733 748.046 584.528 731.491Z" fill="black"/>
<ellipse rx="55.3242" ry="81.5687" transform="matrix(-0.852188 -0.523235 -0.523235 0.852188 364.268 965.365)" fill="#181818"/>
<ellipse rx="42.5611" ry="62.7511" transform="matrix(-0.852188 -0.523235 -0.523235 0.852188 374.656 971.491)" fill="#070707"/>
<ellipse rx="55.3242" ry="81.5687" transform="matrix(-0.852188 -0.523235 -0.523235 0.852188 612.604 797.109)" fill="#181818"/>
<ellipse rx="42.5611" ry="62.7511" transform="matrix(-0.852188 -0.523235 -0.523235 0.852188 622.991 803.234)" fill="#070707"/>
<path fill-rule="evenodd" clip-rule="evenodd" d="M82.4827 716.46L75.7419 753.534C76.1018 771.646 81.3547 808.851 98.1772 837.752C74.5912 864.059 42.8615 874.604 21.066 861.222C-4.97237 845.234 -6.97231 801.152 16.599 762.762C33.7168 734.882 59.6131 717.671 82.4827 716.46Z" fill="#181818"/>
<path fill-rule="evenodd" clip-rule="evenodd" d="M77.8524 741.927L75.742 753.534C76.0969 771.399 81.2121 807.838 97.4941 836.563C79.7476 854.35 57.1213 861.025 41.2996 851.31C21.2682 839.011 19.7296 805.099 37.8631 775.565C48.4145 758.38 63.3015 746.464 77.8524 741.927Z" fill="#070707"/>
<path opacity="0.9" fill-rule="evenodd" clip-rule="evenodd" d="M104.984 842.352C95.5849 828.64 89.2278 812.281 85.0728 796.723C83.0108 798.96 81.0916 801.485 79.3837 804.266C69.6385 820.138 70.4654 838.363 81.2305 844.973C87.9071 849.072 96.8384 847.741 104.984 842.352Z" fill="#2D2C29"/>
<path d="M567.004 490.107C595.776 465.768 576.225 429.566 562.854 414.508C504.858 374.865 449.701 348.774 434.208 342.136C383.027 328.307 350.289 337.065 323.545 350.433C273.286 377.63 171.384 448.62 138.185 476.739C110.151 507.347 122.53 540.656 152.018 556.947C175.38 569.855 227.822 598.158 250.692 608.115C327.418 637.248 387.484 614.415 407.926 599.357C448.963 573.081 538.231 514.446 567.004 490.107Z" fill="#697DFF"/>
<path d="M561.066 484.954C589.139 461.201 570.064 425.87 557.017 411.174C500.432 372.483 446.616 347.02 431.5 340.542C381.563 327.045 349.621 335.593 323.528 348.64C274.491 375.183 175.066 444.465 142.675 471.908C115.322 501.78 127.929 534.58 156.171 550.188C178.965 562.784 230.132 590.407 252.446 600.125C327.307 628.557 385.912 606.273 405.857 591.577C445.896 565.933 532.994 508.708 561.066 484.954Z" fill="#181816"/>
<path d="M537.365 461.733C561.484 441.285 551.27 408.436 533.886 398.221C503.351 380.277 442.338 347.918 429.351 342.341C386.447 330.723 355.701 333.159 333.282 344.39C291.152 367.239 205.731 426.879 177.902 450.503C154.401 476.217 156.587 501.08 182.715 515.547C202.298 526.39 253.041 552.51 272.212 560.875C336.529 585.351 386.88 566.168 404.015 553.517C438.416 531.442 513.246 482.181 537.365 461.733Z" fill="#2D2C29"/>
<path d="M268.224 691.209C268.698 687.945 267.121 684.724 264.252 683.097L128.825 606.343C123.929 603.568 117.774 606.582 116.964 612.151L105.191 693.08C104.717 696.344 106.294 699.565 109.163 701.192L244.59 777.946C249.486 780.721 255.641 777.707 256.451 772.138L268.224 691.209Z" fill="#C4C4C4"/>
<path d="M269.466 691.913C269.941 688.649 268.363 685.428 265.494 683.801L136.05 610.437C131.154 607.662 124.999 610.676 124.188 616.245L112.982 693.279C112.507 696.543 114.085 699.764 116.954 701.39L246.398 774.755C251.295 777.529 257.45 774.515 258.26 768.946L269.466 691.913Z" fill="white"/>
<path d="M159.348 674.603C159.533 671.268 158.872 667.94 157.427 664.929C155.983 661.918 153.801 659.32 151.084 657.376C147.588 654.579 140.088 656.423 139.261 660.872C138.435 665.322 136.846 667.229 132.905 666.276C128.964 665.322 127.629 661.635 127.566 658.394C127.274 655.71 127.681 652.996 128.748 650.517C129.816 648.038 131.507 645.877 133.658 644.245C135.808 642.613 138.344 641.565 141.019 641.204C143.694 640.843 146.417 641.181 148.923 642.184C153.309 644.047 157.264 646.792 160.544 650.247C163.825 653.702 166.36 657.795 167.993 662.271C170.464 667.219 171.686 672.697 171.552 678.226C171.617 678.497 171.617 678.78 171.552 679.052C170.98 682.294 170.154 685.409 166.531 686.553C164.497 687.061 160.174 681.595 159.793 678.861C159.284 677.463 159.348 676.064 159.348 674.603Z" fill="url(#paint0_linear)"/>
<path d="M198.313 698.312C198.378 693.926 200.145 689.737 203.241 686.63C206.336 683.523 210.518 681.74 214.904 681.658C218.665 682.049 222.237 683.504 225.201 685.853C232.393 690.79 237.65 698.069 240.075 706.448C241.474 711.978 244.652 718.144 240.838 724.373C239.884 725.899 239.694 727.297 237.533 727.361C236.555 727.532 235.549 727.398 234.651 726.977C233.752 726.556 233.005 725.869 232.511 725.009C230.81 722.09 230.076 718.708 230.413 715.347C230.519 712.29 229.94 709.249 228.719 706.444C227.499 703.64 225.667 701.144 223.358 699.138C222.687 698.388 221.875 697.778 220.969 697.343C220.062 696.908 219.078 696.657 218.074 696.604C217.069 696.551 216.064 696.697 215.117 697.034C214.169 697.37 213.297 697.891 212.551 698.566C211.103 699.807 210.191 701.561 210.009 703.46C209.782 704.705 209.19 705.854 208.306 706.76C207.423 707.666 206.29 708.288 205.051 708.545C203.589 708.99 198.694 703.651 198.313 701.681C198.249 700.559 198.249 699.434 198.313 698.312Z" fill="url(#paint1_linear)"/>
<path d="M200.241 789.984C200.234 789.839 200.198 789.677 200.107 789.482C200.047 789.358 199.961 789.254 199.823 789.17L197.879 787.875L197.985 786.615L197.984 786.597C197.992 786.488 197.918 786.364 197.818 786.243C197.674 786.05 197.491 785.897 197.308 785.725C196.789 785.28 196.247 784.909 195.708 784.593C195.432 784.426 195.157 784.296 194.899 784.237C194.736 784.191 194.645 784.232 194.626 784.379L194.533 785.62L193.214 784.746L193.201 784.747C193.104 784.679 193.023 784.666 192.97 784.687C192.878 784.71 192.827 784.767 192.791 784.842C192.682 785.048 192.621 785.651 192.65 785.94C192.658 786.085 192.693 786.247 192.784 786.442C192.844 786.566 192.93 786.67 193.068 786.754L194.374 787.629L194.1 790.988C194.029 791.901 193.944 792.797 193.872 793.709C193.865 793.819 193.857 793.91 193.862 794.019C193.875 794.745 194.448 795.696 195.349 796.52C195.884 797 196.44 797.388 197.005 797.703C197.489 797.986 197.969 798.197 198.418 798.336C198.472 798.351 198.513 798.367 198.496 798.295C198.444 797.825 198.404 797.337 198.352 796.867C198.331 796.723 198.272 796.635 198.065 796.519C197.955 796.452 197.845 796.403 197.733 796.319C197.442 796.116 197.312 795.941 197.258 795.69C197.223 795.546 197.231 795.437 197.251 795.308L197.718 789.847L199.676 791.16L199.689 791.159C199.787 791.226 199.868 791.24 199.92 791.219C200.013 791.196 200.063 791.139 200.099 791.064C200.21 790.894 200.271 790.291 200.241 789.984Z" fill="white"/>
<path d="M174.622 774.988L174.572 775.536L174.937 771.153L174.936 771.135C174.943 771.026 174.87 770.902 174.77 770.781C174.625 770.588 174.443 770.435 174.26 770.263C173.741 769.818 173.199 769.447 172.66 769.131C172.383 768.964 172.109 768.834 171.851 768.775C171.688 768.729 171.597 768.771 171.578 768.917L170.673 779.655L170.674 779.674C170.666 779.783 170.74 779.906 170.84 780.028C170.984 780.22 171.166 780.374 171.35 780.546C171.869 780.991 172.411 781.361 172.95 781.678C173.226 781.844 173.501 781.975 173.758 782.034C173.922 782.08 174.013 782.038 174.032 781.892L174.074 781.435C174.453 782.014 174.871 782.555 175.324 783.022C175.778 783.506 176.24 783.881 176.699 784.202C177.254 784.572 177.805 784.851 178.349 785.022C178.894 785.192 179.378 785.239 179.816 785.179C180.255 785.119 180.618 784.917 180.909 784.593C181.199 784.268 181.36 783.786 181.419 783.147C181.469 782.581 181.411 782.002 181.259 781.429C181.107 780.837 180.876 780.268 180.537 779.704C180.212 779.14 179.796 778.617 179.313 778.098C178.83 777.578 178.27 777.118 177.632 776.698C177.146 776.379 176.664 776.114 176.173 775.959C175.696 775.784 175.236 775.7 174.807 775.687L174.539 775.683L174.558 775.537L174.622 774.988ZM177.536 782.357C177.126 782.452 176.664 782.313 176.136 781.96C175.872 781.774 175.607 781.57 175.325 781.313C175.057 781.055 174.786 780.742 174.512 780.375L174.764 777.362C175.376 777.292 175.988 777.478 176.598 777.881C177.806 778.688 178.345 779.75 178.229 781.065C178.178 781.85 177.947 782.28 177.536 782.357Z" fill="white"/>
<path d="M191.407 786.698C190.956 786.032 190.414 785.407 189.806 784.803C189.198 784.2 188.54 783.672 187.873 783.217C187.193 782.763 186.532 782.417 185.876 782.161C185.221 781.924 184.638 781.792 184.131 781.819C183.623 781.829 183.204 781.997 182.872 782.287C182.541 782.596 182.352 783.061 182.292 783.682C182.232 784.322 182.334 784.971 182.586 785.666C182.838 786.361 183.182 787.034 183.645 787.681C184.096 788.348 184.638 788.973 185.26 789.576C185.881 790.178 186.525 790.707 187.205 791.161C187.885 791.615 188.546 791.961 189.188 792.199C189.83 792.437 190.412 792.551 190.92 792.542C191.428 792.533 191.847 792.365 192.179 792.074C192.51 791.765 192.699 791.301 192.759 790.679C192.818 790.04 192.716 789.391 192.465 788.695C192.215 788.036 191.871 787.364 191.407 786.698ZM188.884 789.78C188.518 789.945 188.015 789.808 187.363 789.371C186.697 788.934 186.226 788.396 185.926 787.794C185.639 787.192 185.512 786.562 185.569 785.887C185.627 785.229 185.831 784.8 186.184 784.635C186.536 784.471 187.052 784.607 187.718 785.043C188.37 785.481 188.84 786.001 189.14 786.603C189.44 787.204 189.555 787.853 189.511 788.51C189.455 789.203 189.249 789.614 188.884 789.78Z" fill="white"/>
<path d="M143.983 762.428C143.595 762.176 143.231 761.886 142.879 761.56C141.88 760.651 141.247 759.594 141.231 758.795C141.225 758.686 141.233 758.577 141.24 758.467L141.608 754.139C141.617 754.047 141.724 754.042 141.849 754.126C141.974 754.21 142.075 754.35 142.066 754.441L141.698 758.77C141.691 758.879 141.682 758.971 141.687 759.061C141.696 759.715 142.211 760.578 143.027 761.316C143.505 761.744 144.007 762.117 144.586 762.431C145.041 762.68 145.466 762.875 145.862 763.017C145.829 762.655 145.782 762.294 145.751 761.95L145.721 761.643C145.721 761.643 145.721 761.643 145.72 761.625C145.706 761.626 145.705 761.607 145.692 761.608C145.581 761.541 145.444 761.476 145.318 761.374C144.929 761.104 144.712 760.807 144.628 760.484C144.592 760.322 144.598 760.177 144.605 760.067L145.031 755.081C145.029 755.045 145.014 755.009 144.943 754.922C144.841 754.782 144.701 754.663 144.518 754.491C144.041 754.08 143.541 753.744 142.988 753.428C142.767 753.294 142.506 753.163 142.275 753.103C142.181 753.09 142.141 753.092 142.131 753.165L142.132 753.183C142.109 753.257 142.003 753.263 141.877 753.161C141.752 753.077 141.664 752.936 141.672 752.845C141.688 752.644 141.819 752.582 142.063 752.642C142.361 752.716 142.691 752.88 142.967 753.029C143.574 753.378 144.131 753.766 144.664 754.228C144.833 754.383 145.057 754.571 145.259 754.832C145.431 755.041 145.508 755.237 145.503 755.383L145.504 755.401L145.076 760.369C145.069 760.478 145.061 760.588 145.081 760.696C145.116 760.857 145.173 760.927 145.355 761.063C145.452 761.13 145.548 761.18 145.631 761.23C145.742 761.296 145.894 761.379 146.022 761.536C146.138 761.693 146.172 761.819 146.175 761.891L146.205 762.198C146.239 762.578 146.287 762.958 146.321 763.338C146.341 763.464 146.263 763.504 146.1 763.459C145.637 763.32 145.143 763.092 144.618 762.793C144.412 762.695 144.191 762.562 143.983 762.428Z" fill="white"/>
<path d="M166.681 777.599C166.293 777.347 165.929 777.058 165.577 776.731C164.578 775.822 163.945 774.765 163.929 773.966C163.923 773.858 163.93 773.748 163.938 773.639L164.306 769.31C164.315 769.219 164.421 769.213 164.546 769.297C164.671 769.381 164.773 769.521 164.764 769.613L164.396 773.941C164.388 774.051 164.38 774.142 164.385 774.233C164.393 774.887 164.908 775.75 165.724 776.487C166.202 776.916 166.704 777.289 167.283 777.603C167.738 777.851 168.164 778.046 168.559 778.188C168.526 777.827 168.48 777.465 168.448 777.122L168.418 776.814C168.418 776.814 168.418 776.814 168.417 776.796C168.404 776.797 168.403 776.779 168.39 776.779C168.279 776.713 168.142 776.647 168.016 776.545C167.626 776.275 167.41 775.978 167.325 775.655C167.29 775.494 167.295 775.348 167.303 775.238L167.729 770.252C167.727 770.216 167.712 770.181 167.64 770.094C167.539 769.954 167.399 769.834 167.216 769.662C166.738 769.251 166.238 768.915 165.686 768.599C165.465 768.466 165.204 768.335 164.973 768.274C164.877 768.243 164.838 768.263 164.829 768.337L164.83 768.355C164.807 768.429 164.7 768.434 164.574 768.332C164.449 768.248 164.362 768.107 164.37 768.016C164.386 767.815 164.516 767.754 164.761 767.813C165.059 767.888 165.389 768.052 165.665 768.201C166.272 768.549 166.828 768.938 167.362 769.4C167.531 769.554 167.755 769.742 167.957 770.004C168.128 770.213 168.206 770.408 168.2 770.554L168.201 770.572L167.774 775.54C167.767 775.65 167.759 775.759 167.778 775.867C167.814 776.029 167.871 776.099 168.052 776.234C168.15 776.302 168.246 776.351 168.329 776.401C168.44 776.468 168.591 776.55 168.72 776.707C168.836 776.864 168.869 776.99 168.873 777.062L168.903 777.37C168.937 777.75 168.984 778.129 169.018 778.509C169.039 778.635 168.96 778.676 168.797 778.63C168.335 778.491 167.841 778.264 167.316 777.965C167.111 777.885 166.89 777.751 166.681 777.599Z" fill="white"/>
<path d="M137.458 758.07C137.028 757.784 136.637 757.478 136.245 757.154L136.188 757.102C135.95 756.897 135.697 756.674 135.508 756.394C135.377 756.201 135.151 755.74 135.122 755.687L132.694 750.874C132.639 750.84 132.611 750.824 132.583 750.807C132.542 750.791 132.528 750.774 132.486 750.74L132.233 753.735L132.234 753.753C132.234 753.753 132.234 753.753 132.235 753.771C132.206 753.973 132.062 754.035 131.791 753.977C131.425 753.887 131.053 753.689 130.722 753.507C129.99 753.092 129.322 752.619 128.677 752.073C128.467 751.902 128.2 751.662 127.97 751.365C127.784 751.139 127.693 750.944 127.685 750.799L127.684 750.781L127.683 750.763C127.683 750.763 127.683 750.763 127.682 750.745L127.681 750.727L128.712 738.6C128.712 738.6 128.712 738.6 128.711 738.582C128.726 738.363 128.882 738.281 129.154 738.358C129.52 738.447 129.892 738.645 130.223 738.827C130.955 739.242 131.623 739.715 132.268 740.262C132.478 740.432 132.745 740.672 132.975 740.969C133.175 741.213 133.267 741.426 133.263 741.59L133.264 741.608L132.702 748.292C132.744 748.326 132.77 748.325 132.799 748.359C132.827 748.376 132.854 748.393 132.91 748.426L135.841 747.213C135.867 747.194 136.156 747.087 136.302 747.079C136.516 747.068 136.791 747.198 137.024 747.313L137.08 747.346C137.74 747.674 138.405 748.093 139.131 748.654C139.452 748.909 139.829 749.198 140.159 749.598L140.173 749.615C140.344 749.806 140.772 750.31 140.486 750.453L136.538 752.175L139.795 758.725C140.036 759.221 139.562 759.12 139.386 759.075L139.373 759.075C139.007 758.986 138.635 758.788 138.304 758.606C137.998 758.404 137.722 758.238 137.458 758.07ZM132.772 750.579C132.841 750.63 132.981 750.731 133.069 750.89L135.54 755.756C135.63 755.933 135.795 756.269 135.868 756.374C135.969 756.514 136.138 756.669 136.32 756.823L136.377 756.874C136.952 757.37 137.564 757.792 138.24 758.173C138.517 758.34 138.847 758.504 139.117 758.562L139.131 758.561C139.199 758.576 139.334 758.605 139.36 758.585C139.36 758.585 139.359 758.567 139.344 758.55L136.088 752.018C136.087 751.999 136.073 752 136.072 751.982C136.042 751.911 136.025 751.857 136.037 751.82C136.035 751.784 136.06 751.746 136.099 751.726C136.112 751.725 136.112 751.725 136.124 751.707L140.086 749.984C140.099 749.983 140.098 749.965 140.098 749.965C140.083 749.929 139.954 749.773 139.897 749.703L139.882 749.685C139.612 749.391 139.304 749.135 139.024 748.914C138.355 748.405 137.744 748.001 137.154 747.724L137.098 747.691C136.906 747.592 136.727 747.511 136.621 747.517C136.54 747.521 136.331 747.605 136.226 747.647L133.255 748.88C133.137 748.923 132.984 748.822 132.928 748.771C132.845 748.72 132.803 748.686 132.775 748.67C132.72 748.636 132.72 748.636 132.554 748.536C132.512 748.502 132.388 748.436 132.301 748.314C132.214 748.191 132.224 748.118 132.222 748.082L132.23 747.99L132.791 741.288C132.789 741.252 132.786 741.179 132.671 741.04C132.542 740.883 132.372 740.711 132.134 740.505C131.558 740.009 130.947 739.588 130.27 739.206C129.994 739.039 129.677 738.875 129.393 738.817C129.257 738.788 129.205 738.809 129.198 738.919L128.155 751.065C128.156 751.101 128.174 751.173 128.274 751.294C128.404 751.469 128.573 751.624 128.811 751.829C129.387 752.325 129.998 752.747 130.675 753.128C130.951 753.295 131.281 753.459 131.552 753.517C131.687 753.546 131.74 753.525 131.747 753.416L132.023 750.347C132.023 750.347 132.022 750.328 132.021 750.31C132.032 750.273 132.056 750.217 132.124 750.232C132.217 750.227 132.342 750.311 132.384 750.345C132.537 750.446 132.551 750.463 132.607 750.497C132.633 750.495 132.674 750.511 132.772 750.579C132.758 750.579 132.758 750.579 132.772 750.579Z" fill="white"/>
<path d="M158.209 771.858C156.751 770.882 155.496 769.459 154.887 768.092C154.135 768.533 152.78 768.224 151.322 767.249C149.171 765.82 147.528 763.4 147.632 761.849L147.631 761.831L148.021 757.174C148.038 756.991 148.168 756.911 148.399 756.972C148.696 757.028 149.013 757.193 149.275 757.342C149.868 757.674 150.411 758.063 150.93 758.507C151.098 758.644 151.323 758.85 151.511 759.094C151.682 759.303 151.759 759.481 151.753 759.626L151.754 759.645L151.399 763.954C151.377 764.301 151.754 764.844 152.227 765.164C152.712 765.483 153.14 765.478 153.161 765.113L153.518 760.84C153.535 760.657 153.665 760.578 153.896 760.638C154.193 760.694 154.51 760.859 154.772 761.009C155.365 761.34 155.908 761.729 156.427 762.173C156.595 762.31 156.821 762.516 157.008 762.76C157.18 762.969 157.256 763.147 157.251 763.292L156.896 767.62C156.878 767.785 156.957 768.017 157.117 768.245C157.276 768.472 157.489 768.697 157.725 768.848C158.21 769.167 158.625 769.163 158.66 768.816L159.017 764.524C159.033 764.341 159.163 764.262 159.394 764.322C159.691 764.379 160.008 764.543 160.27 764.693C160.863 765.024 161.406 765.413 161.925 765.858C162.093 765.994 162.319 766.2 162.506 766.444C162.664 766.654 162.754 766.831 162.749 766.977L162.358 771.634L162.359 771.652L162.36 771.67C162.243 773.221 160.374 773.304 158.209 771.858ZM154.938 767.544C154.98 767.578 155.022 767.612 155.05 767.647C155.093 767.699 155.123 767.752 155.138 767.788C155.583 769.091 156.787 770.571 158.231 771.529C160.133 772.808 161.789 772.737 161.902 771.367L161.901 771.349L161.9 771.331L162.292 766.692L162.291 766.674C162.289 766.638 162.273 766.602 162.215 766.515C162.115 766.393 161.987 766.254 161.805 766.101C161.342 765.707 160.869 765.369 160.331 765.071C160.11 764.956 159.861 764.806 159.645 764.763C159.551 764.75 159.511 764.752 159.501 764.825L159.143 769.099C159.143 769.099 159.143 769.099 159.144 769.117L159.145 769.135L159.146 769.153C159.065 769.63 158.437 769.646 157.728 769.157C156.992 768.669 156.425 767.827 156.463 767.298L156.819 762.989C156.817 762.952 156.802 762.917 156.744 762.829C156.644 762.707 156.516 762.569 156.333 762.415C155.871 762.022 155.397 761.684 154.859 761.386C154.639 761.27 154.39 761.12 154.174 761.077C154.079 761.064 154.039 761.066 154.03 761.14L153.674 765.449L153.675 765.467C153.608 765.962 152.98 765.977 152.258 765.489C151.535 765.001 150.97 764.195 150.995 763.667C150.995 763.667 150.995 763.667 150.994 763.649L150.993 763.631C150.993 763.631 150.993 763.631 150.992 763.612L151.348 759.303C151.346 759.267 151.331 759.231 151.272 759.143C151.172 759.022 151.044 758.883 150.862 758.729C150.399 758.336 149.926 757.998 149.388 757.7C149.168 757.585 148.919 757.434 148.702 757.392C148.608 757.378 148.568 757.381 148.558 757.454C148.558 757.454 148.558 757.454 148.559 757.472L148.169 762.129C148.069 763.498 149.522 765.637 151.425 766.916C152.868 767.874 154.179 768.112 154.788 767.498C154.813 767.46 154.867 767.475 154.935 767.49C154.896 767.51 154.924 767.527 154.938 767.544Z" fill="white"/>
<path d="M142.224 750.688C142.224 750.688 142.211 750.689 142.21 750.671C141.877 750.452 141.643 750.083 141.671 749.863C141.716 749.442 141.997 749.209 142.451 749.185C142.919 749.177 143.492 749.383 144.089 749.787C144.422 750.005 144.656 750.375 144.628 750.594C144.6 750.814 144.32 750.829 143.986 750.593C143.721 750.407 143.449 750.313 143.235 750.324C143.008 750.336 142.881 750.452 142.852 750.654C142.825 750.91 142.544 750.907 142.224 750.688Z" fill="white"/>
<path d="M145.558 752.961C145.558 752.961 145.545 752.962 145.544 752.944C145.211 752.726 144.977 752.356 145.005 752.137C145.035 751.935 144.94 751.668 144.751 751.387C144.562 751.106 144.292 750.83 143.987 750.628C143.654 750.41 143.42 750.041 143.448 749.821C143.477 749.602 143.757 749.586 144.091 749.823C144.702 750.244 145.254 750.796 145.661 751.392C146.055 751.989 146.245 752.542 146.187 752.964C146.159 753.183 145.878 753.18 145.558 752.961Z" fill="white"/>
<path d="M164.895 765.843C164.895 765.843 164.882 765.844 164.881 765.826C164.548 765.607 164.314 765.238 164.342 765.018C164.386 764.598 164.668 764.364 165.121 764.34C165.589 764.333 166.163 764.538 166.76 764.942C167.093 765.161 167.327 765.53 167.298 765.75C167.27 765.969 166.99 765.985 166.656 765.748C166.392 765.562 166.119 765.468 165.906 765.479C165.679 765.492 165.551 765.608 165.522 765.809C165.496 766.065 165.215 766.062 164.895 765.843Z" fill="white"/>
<path d="M168.231 768.135C168.231 768.135 168.217 768.136 168.216 768.118C167.884 767.9 167.649 767.531 167.678 767.311C167.707 767.109 167.612 766.842 167.423 766.561C167.234 766.28 166.965 766.004 166.66 765.802C166.327 765.584 166.093 765.215 166.121 764.995C166.149 764.776 166.429 764.76 166.763 764.997C167.375 765.418 167.926 765.97 168.333 766.566C168.727 767.163 168.917 767.717 168.86 768.138C168.831 768.339 168.549 768.336 168.231 768.135Z" fill="white"/>
<path d="M389.674 225.242V99.5674C381.263 102.772 376.156 113.587 374.654 118.594C373.652 160.152 373.652 243.268 381.663 243.268C388.473 240.063 389.841 229.916 389.674 225.242Z" fill="#262626"/>
<path d="M524.894 26.5701V8.04431L387.202 102.676V235.862C391.207 234.66 395.547 230.354 397.216 228.351C436.604 167.433 516.482 43.9944 520.888 37.5854C525.294 31.1765 525.394 27.5715 524.894 26.5701Z" fill="#697DFF"/>
<path d="M385.199 231.355V116.696C381.194 120.701 380.192 124.039 380.192 125.208V236.362C383.797 236.362 385.032 233.024 385.199 231.355Z" fill="#C4C4C4"/>
<path d="M369.177 247.879V629.911L378.19 621.899V247.879C382.996 245.475 381.861 237.865 380.693 234.36C380.526 205.486 380.293 144.434 380.693 131.216C381.094 117.998 391.208 107.683 396.215 104.178C437.439 74.4704 520.988 14.2532 525.395 11.0487C530.902 7.04315 525.895 4.03902 523.392 1.53553C521.389 -0.467258 518.886 0.701035 517.884 1.53553C473.656 30.9098 383.497 90.6597 376.687 94.6652C367.675 97.6694 364.17 98.1701 361.166 108.184C355.658 127.211 359.664 228.351 359.664 231.356C359.664 233.759 360.665 236.029 361.166 236.863L369.177 247.879Z" fill="black"/>
<defs>
<linearGradient id="paint0_linear" x1="-9151.37" y1="-337152" x2="-9456.29" y2="-337152" gradientUnits="userSpaceOnUse">
<stop stop-color="#687CFE"/>
<stop offset="0.18" stop-color="#6778FB"/>
<stop offset="0.3" stop-color="#656FF5"/>
<stop offset="0.49" stop-color="#6059E6"/>
<stop offset="0.72" stop-color="#5734CE"/>
<stop offset="0.99" stop-color="#4C02AC"/>
<stop offset="1" stop-color="#4C00AB"/>
</linearGradient>
<linearGradient id="paint1_linear" x1="-9776.51" y1="-341260" x2="-10086.7" y2="-341260" gradientUnits="userSpaceOnUse">
<stop stop-color="#687CFE"/>
<stop offset="0.18" stop-color="#6778FB"/>
<stop offset="0.3" stop-color="#656FF5"/>
<stop offset="0.49" stop-color="#6059E6"/>
<stop offset="0.72" stop-color="#5734CE"/>
<stop offset="0.99" stop-color="#4C02AC"/>
<stop offset="1" stop-color="#4C00AB"/>
</linearGradient>
</defs>
</svg>
