<svg viewBox="0 0 964 1061" fill="none" xmlns="http://www.w3.org/2000/svg">
<path opacity="0.16" d="M670.739 944.726V947.098C671.724 948.713 672.275 950.556 672.337 952.448C672.399 954.339 671.971 956.214 671.095 957.891C670.918 958.241 670.825 958.627 670.825 959.018C670.825 959.41 670.918 959.796 671.095 960.145C673.591 964.979 674.988 970.305 675.187 975.742C677.254 987.253 675.871 999.117 671.213 1009.84C679.713 1010.55 688.263 1010.33 696.715 1009.19C703.18 1008.42 709.703 1007.53 716.227 1007.17C723.105 1006.7 729.848 1005.04 736.154 1002.25C742.084 999.524 748.845 997.686 755.132 995.313C764.666 991.337 773.834 986.535 782.531 980.961C800.975 970.168 819.538 959.611 837.982 948.818C844.843 944.442 851.207 939.331 856.96 933.576C859.273 931.441 861.824 929.543 864.018 927.289C867.354 924.523 869.481 920.566 869.948 916.258C870.057 915.482 870.363 914.747 870.838 914.123C874.086 907.574 876.345 900.579 877.539 893.366C877.776 892.001 878.382 890.726 879.292 889.681C880.201 888.635 881.38 887.859 882.699 887.436C885.546 886.249 889.104 886.012 889.875 881.505C890.231 879.251 893.73 878.065 896.221 879.014C904.049 882.039 911.7 885.716 919.588 888.562C922.256 889.867 924.984 891.053 927.713 892.121C933.431 893.766 939.548 893.324 944.97 890.875C945.787 890.533 946.528 890.031 947.15 889.4C947.772 888.769 948.262 888.021 948.593 887.2C948.924 886.378 949.089 885.498 949.078 884.613C949.067 883.727 948.88 882.852 948.529 882.039C948.144 881.111 947.556 880.28 946.809 879.607C942.072 875.105 936.863 871.128 931.271 867.746C930.618 867.746 929.788 867.746 929.373 867.746C925.874 869.881 921.426 868.22 917.986 870.771C917.532 871.02 917.022 871.15 916.504 871.15C915.985 871.15 915.475 871.02 915.021 870.771C912.056 867.805 907.904 868.932 904.464 867.983C893.959 864.84 884.401 859.133 876.65 851.377H876.353L874.811 849.776L873.21 848.234L871.668 846.633L870.067 845.091C862.772 841.651 861.764 841.888 858.68 847.7C853.986 855.417 847.746 862.081 840.354 867.272C833.201 872.443 825.69 877.1 817.878 881.209C806.016 888.266 793.503 894.73 781.76 902.321C775.326 906.291 768.673 909.895 761.833 913.115C754.155 917.27 746.091 920.666 737.755 923.257C731.824 925.036 725.419 926.933 719.014 928.179C712.394 929.965 705.586 930.96 698.732 931.144C697.693 931.192 696.662 931.331 695.648 931.559C695.261 931.954 694.8 932.267 694.29 932.481C693.781 932.695 693.235 932.805 692.682 932.805C692.13 932.805 691.583 932.695 691.074 932.481C690.565 932.267 690.104 931.954 689.717 931.559C688.325 931.489 686.938 931.331 685.566 931.085C683.786 930.788 681.651 932.093 680.228 930.017C678.694 929.337 676.953 929.292 675.386 929.892C673.819 930.492 672.553 931.689 671.866 933.22C670.712 934.883 670.003 936.812 669.806 938.826C669.609 940.84 669.93 942.871 670.739 944.726Z" fill="#181816"/>
<path opacity="0.16" d="M540.319 874.564H538.717C537.235 873.971 536.523 872.666 535.574 871.539H533.973C532.49 871.005 531.778 869.641 530.83 868.515H529.228C526.49 866.688 523.856 864.708 521.341 862.584C518.316 863.355 517.96 859.796 515.825 859.203C512.327 857.838 509.242 855.591 506.87 852.68C505.269 851.612 502.896 851.79 502.125 849.477C500.524 848.469 498.152 848.528 497.381 846.275C494.989 845.542 492.904 844.041 491.45 842.005H489.849C488.52 841.338 487.424 840.283 486.706 838.98H485.105C482.673 836.43 478.759 835.718 476.98 832.338C475.378 831.152 472.769 831.448 472.117 828.898C469.613 823.72 465.433 819.54 460.255 817.037C457.874 815.572 455.596 813.947 453.435 812.174C452.988 811.711 452.438 811.363 451.829 811.157C451.221 810.95 450.571 810.892 449.936 810.987C449.936 812.233 448.868 812.707 447.92 813.182V818.045C448.601 818.357 449.135 818.919 449.411 819.616C449.687 820.312 449.684 821.087 449.402 821.781C449.758 825.192 449.758 828.63 449.402 832.041C451.616 833.623 451.616 835.165 449.402 836.667V841.471C449.699 843.725 450.588 846.156 447.92 847.757V850.13C447.449 853.924 446.02 857.536 443.768 860.627C440.437 865.973 435.821 870.401 430.342 873.508C424.863 876.616 418.693 878.304 412.395 878.419C406.177 878.346 400.07 876.758 394.603 873.793C387.047 870.964 380.204 866.51 374.558 860.745C374.19 860.612 373.856 860.4 373.579 860.123C373.302 859.846 373.09 859.512 372.957 859.144C372.58 859.027 372.237 858.82 371.958 858.541C371.679 858.262 371.472 857.92 371.355 857.543C370.987 857.41 370.653 857.197 370.377 856.92C370.1 856.644 369.887 856.31 369.754 855.942C369.377 855.825 369.035 855.618 368.756 855.339C368.477 855.06 368.27 854.717 368.153 854.34C367.776 854.223 367.433 854.017 367.154 853.738C366.875 853.459 366.669 853.116 366.552 852.739C366.175 852.622 365.832 852.415 365.553 852.136C365.274 851.857 365.067 851.515 364.95 851.138C364.574 851.021 364.231 850.814 363.952 850.535C363.673 850.256 363.466 849.913 363.349 849.536C362.972 849.42 362.63 849.213 362.351 848.934C362.072 848.655 361.865 848.312 361.748 847.935C359.969 846.809 359.731 844.733 358.545 843.191H358.842C358.012 842.776 357.122 842.42 357.063 841.293V839.751L355.877 838.446C355.106 838.031 354.216 837.675 354.097 836.608V835.006L352.971 833.702L351.013 831.863C348.463 833.998 345.083 834.769 343.244 838.15C342.502 839.343 342.208 840.762 342.414 842.152C342.621 843.543 343.314 844.814 344.371 845.741C352.602 852.801 361.388 859.188 370.644 864.838C384.936 875.038 399.585 884.705 414.234 894.491C418.854 897.481 423.918 899.723 429.238 901.133C432.878 901.966 436.698 901.371 439.913 899.472C441.816 898.317 444.032 897.782 446.253 897.941C448.473 898.1 450.59 898.946 452.308 900.362C470.634 912.875 489.078 925.152 507.522 937.547C527.212 950.772 546.961 963.938 566.828 977.282C571.276 980.307 575.428 983.687 579.757 986.89C581.774 988.432 581.892 989.796 579.757 991.634C578.67 992.479 577.775 993.545 577.131 994.762C576.487 995.978 576.109 997.318 576.021 998.692C575.724 1003.79 579.876 1005.81 582.782 1008.06C591.144 1014.53 600.04 1020.34 608.817 1026.33C622.457 1035.52 635.92 1045.07 649.916 1053.61C652.82 1055.75 656.141 1057.27 659.664 1058.05C663.188 1058.84 666.836 1058.88 670.377 1058.18C673.935 1057.23 677.256 1055.92 678.383 1052.66C678.971 1050.93 679.007 1049.06 678.486 1047.31C677.966 1045.55 676.914 1044 675.477 1042.87C671.247 1039.66 668.001 1035.32 666.107 1030.36C665.632 1030.36 664.98 1030.36 664.624 1030.36C659.809 1033.69 654.042 1035.35 648.196 1035.11C644.994 1035.11 641.732 1035.11 638.47 1035.11C637.225 1036.29 637.047 1035.11 636.869 1034.33C634.497 1033.5 632.065 1032.85 629.752 1031.84C625.094 1030.43 620.788 1028.05 617.12 1024.85C615.806 1024.39 614.693 1023.49 613.977 1022.3C612.791 1022.3 611.842 1022.3 611.604 1020.81C605.697 1016.25 600.378 1010.97 595.77 1005.1C595.523 1005.04 595.29 1004.94 595.084 1004.79C594.878 1004.64 594.704 1004.46 594.571 1004.24C594.438 1004.02 594.35 1003.78 594.312 1003.53C594.273 1003.28 594.285 1003.03 594.346 1002.78C593.16 1001.54 591.322 1000.83 591.025 998.869H590.254C589.246 998.869 588.179 998.869 589.365 997.327L586.162 990.982C584.857 990.626 584.62 989.736 584.857 988.55C583.849 987.72 582.722 987.008 583.197 985.407C582.604 984.933 581.774 984.755 581.833 983.806V982.264C581.24 981.789 580.469 981.611 580.528 980.662V979.061C579.935 978.646 579.105 978.409 579.164 977.46V975.858C578.452 974.91 577.444 974.139 577.681 972.715V971.173C576.732 970.284 575.665 969.513 576.199 968.03V966.429C575.309 965.539 574.242 964.768 574.716 963.226V960.083C574.064 959.431 573.055 958.956 573.411 957.711C572.995 955.896 572.995 954.01 573.411 952.195C571.158 950.594 571.869 948.163 571.81 946.265C571.092 939.119 571.695 931.902 573.589 924.974C574.747 918.61 577.955 912.799 582.722 908.427C583.401 907.828 583.955 907.1 584.352 906.286C584.749 905.472 584.981 904.587 585.035 903.683C585.035 901.904 582.9 903.268 581.892 902.497C580.884 901.726 579.698 901.074 579.342 899.65L578.037 899.235C576.436 899.235 575.784 898.286 575.191 897.1L573.293 896.033C571.692 896.033 571.039 895.143 570.446 893.957L568.608 892.889C566.947 892.889 566.295 892 565.702 890.754C560.09 887.639 554.717 884.111 549.63 880.198C548.265 880.613 547.85 879.545 547.257 878.774H545.715C541.92 876.995 541.208 875.691 540.319 874.564Z" fill="#181816"/>
<path d="M819.188 188.464V83.1089C826.24 85.7952 830.521 94.8617 831.781 99.0591C832.62 133.898 832.62 203.575 825.904 203.575C820.196 200.889 819.049 192.382 819.188 188.464Z" fill="#262626"/>
<path d="M705.832 21.914V6.38354L821.261 85.7149V197.367C817.903 196.359 814.265 192.749 812.866 191.07C779.847 140.002 712.884 36.5211 709.19 31.1484C705.496 25.7757 705.412 22.7535 705.832 21.914Z" fill="#697DFF"/>
<path d="M822.94 193.589V97.4678C826.298 100.826 827.138 103.624 827.138 104.603V197.786C824.115 197.786 823.08 194.988 822.94 193.589Z" fill="#C4C4C4"/>
<path d="M836.372 207.441V527.704L828.817 520.988V207.441C824.787 205.426 825.739 199.046 826.718 196.107C826.858 171.902 827.054 120.722 826.718 109.64C826.382 98.5592 817.903 89.9125 813.706 86.9743C779.147 62.0695 709.106 11.5885 705.412 8.90211C700.795 5.54417 704.993 3.02576 707.091 0.927047C708.77 -0.751924 710.869 0.227475 711.708 0.927047C748.786 25.552 824.367 75.6413 830.076 78.9992C837.631 81.5177 840.57 81.9374 843.088 90.3323C847.705 106.282 844.347 191.071 844.347 193.589C844.347 195.604 843.508 197.507 843.088 198.206L836.372 207.441Z" fill="black"/>
<path d="M402.337 686.565L419.127 503.558C421.622 476.358 435.277 458.645 441.793 453.188C461.381 441.576 508.28 413.901 539.173 396.103C589.542 373.018 634.874 383.511 653.763 390.647C689.249 405.676 759.198 455.169 803.728 486.677L804.451 487.188C840.045 512.372 850.622 542.174 851.462 553.927C861.536 604.296 882.774 711.162 887.14 735.675C906.868 741.132 932.052 749.947 947.163 779.329C972.767 835.574 962.694 856.141 945.064 869.573C922.23 884.348 893.296 865.376 881.683 854.043C878.885 851.384 872.701 846.403 870.35 847.747C870.014 851.105 860.976 862.018 856.499 867.055C834.532 881.466 784.303 913.059 759.118 924.14C718.403 939.251 712.947 936.312 690.7 934.633C674.33 932.954 675.589 935.053 677.268 946.806C682.725 957.719 681.466 956.88 679.367 963.596C689.021 996.755 683.565 1024.46 661.738 1032.43C615.986 1041.25 589.122 1004.31 574.431 970.731C559.992 933.794 573.452 912.527 581.987 906.511L471.175 835.994L461.521 822.142C462.22 822.562 460.597 821.471 448.509 813.747C453.126 839.352 453.126 866.635 426.262 876.289C393.522 886.783 356.165 858.66 338.536 804.513C320.487 726.021 392.263 741.971 398.979 744.07C396.293 717.207 400.098 694.541 402.337 686.565Z" fill="black"/>
<path fill-rule="evenodd" clip-rule="evenodd" d="M419.127 503.558L402.337 686.565C400.717 692.337 398.276 705.803 398.069 722.986C400.184 735.013 406.229 745.014 414.966 753.438C459.878 785.758 558.853 854.68 605.529 886.916C674.702 914.451 727.534 907.064 745.303 899.928C778.323 884.258 849.651 848.972 870.806 833.189C888.603 814.721 894.172 784.079 894.732 771.067L887.545 735.788C887.41 735.75 887.275 735.713 887.14 735.675C882.775 711.162 861.536 604.296 851.462 553.927C850.622 542.174 840.045 512.372 804.451 487.188L803.728 486.677C759.198 455.169 689.249 405.676 653.763 390.647C634.875 383.511 589.542 373.018 539.173 396.103C508.28 413.901 461.381 441.576 441.793 453.188C435.277 458.645 421.622 476.358 419.127 503.558Z" fill="white"/>
<path d="M629.874 701.81C622.151 653.791 590.698 630.034 579.505 624.157C579.505 622.758 580.26 619.96 583.282 619.96C637.345 656.226 701.23 643.465 726.415 632.552C759.574 615.762 827.741 580.672 835.128 574.628C845.202 562.203 848.84 547.624 849.399 541.888C857.235 582.043 874.416 665.544 883.818 713.562C892.885 762.924 859.893 800.309 841.844 808.424C836.527 811.782 812.462 825.298 758.735 852.497C698.628 879.025 655.147 848.72 650.022 818.918C646.244 796.951 637.597 749.828 629.874 701.81Z" fill="black"/>
<path d="M418.773 750.08C400.305 734.634 396.527 710.065 396.947 699.711C401.984 655.218 412.729 557.586 415.416 523C417.094 553.221 435.143 570.57 443.958 575.467C470.961 594.776 528.242 635.742 541.338 645.145C554.434 654.547 558.548 663.054 558.968 666.132C568.901 720.978 589.609 834.868 592.967 851.658C596.325 868.448 584.292 863.971 577.856 859.633C532.524 829.552 437.242 765.527 418.773 750.08Z" fill="black"/>
<ellipse cx="624.277" cy="968.285" rx="51.6176" ry="76.1039" transform="rotate(-31.5495 624.277 968.285)" fill="#181818"/>
<ellipse cx="614.585" cy="974.001" rx="39.7096" ry="58.547" transform="rotate(-31.5495 614.585 974.001)" fill="#070707"/>
<ellipse cx="392.579" cy="811.302" rx="51.6176" ry="76.1039" transform="rotate(-31.5495 392.579 811.302)" fill="#181818"/>
<ellipse cx="382.887" cy="817.017" rx="39.7096" ry="58.547" transform="rotate(-31.5495 382.887 817.017)" fill="#070707"/>
<path fill-rule="evenodd" clip-rule="evenodd" d="M887.183 736.057L893.472 770.648C893.136 787.546 888.235 822.258 872.54 849.223C894.546 873.768 924.15 883.605 944.485 871.12C968.779 856.204 970.645 815.075 948.653 779.257C932.682 753.245 908.52 737.187 887.183 736.057Z" fill="#181818"/>
<path fill-rule="evenodd" clip-rule="evenodd" d="M891.503 759.818L893.472 770.648C893.141 787.315 888.368 821.313 873.177 848.114C889.735 864.709 910.845 870.937 925.607 861.873C944.296 850.398 945.732 818.758 928.813 791.203C918.969 775.169 905.079 764.052 891.503 759.818Z" fill="#070707"/>
<path opacity="0.9" fill-rule="evenodd" clip-rule="evenodd" d="M866.189 853.515C874.959 840.722 880.89 825.459 884.767 810.943C886.69 813.03 888.481 815.386 890.074 817.981C899.167 832.79 898.395 849.793 888.351 855.96C882.122 859.785 873.789 858.543 866.189 853.515Z" fill="#2D2C29"/>
<path d="M435.124 524.869C408.279 502.16 426.52 468.384 438.996 454.335C493.105 417.347 544.568 393.005 559.022 386.811C606.775 373.909 637.319 382.08 662.271 394.553C709.163 419.928 804.238 486.161 835.213 512.396C861.369 540.954 849.819 572.031 822.307 587.231C800.51 599.274 751.581 625.681 730.243 634.971C658.657 662.152 602.616 640.849 583.544 626.799C545.256 602.284 461.969 547.577 435.124 524.869Z" fill="#697DFF"/>
<path d="M440.663 520.061C414.471 497.899 432.268 464.935 444.441 451.223C497.235 415.126 547.446 391.368 561.549 385.324C608.141 372.732 637.942 380.707 662.287 392.879C708.039 417.644 800.803 482.284 831.024 507.889C856.544 535.76 844.782 566.362 818.432 580.924C797.165 592.677 749.426 618.449 728.607 627.515C658.762 654.043 604.083 633.252 585.475 619.54C548.117 595.615 466.855 542.224 440.663 520.061Z" fill="#181816"/>
<path d="M462.777 498.396C440.274 479.318 449.804 448.669 466.023 439.138C494.512 422.397 551.437 392.206 563.554 387.003C603.583 376.163 632.27 378.436 653.187 388.914C692.495 410.232 772.192 465.877 798.157 487.918C820.083 511.91 818.044 535.106 793.667 548.604C775.395 558.721 728.052 583.091 710.165 590.895C650.157 613.731 603.18 595.834 587.192 584.03C555.097 563.435 485.28 517.474 462.777 498.396Z" fill="#2D2C29"/>
<path d="M713.939 712.86C713.465 709.596 715.042 706.375 717.911 704.748L843.264 633.703C848.16 630.928 854.315 633.942 855.125 639.512L865.944 713.88C866.418 717.145 864.841 720.366 861.971 721.992L736.619 793.037C731.723 795.812 725.568 792.798 724.758 787.229L713.939 712.86Z" fill="#C4C4C4"/>
<path d="M712.78 713.517C712.306 710.253 713.883 707.032 716.752 705.405L836.524 637.523C841.42 634.749 847.575 637.763 848.385 643.332L858.675 714.066C859.149 717.33 857.572 720.551 854.702 722.177L734.931 790.059C730.035 792.834 723.88 789.82 723.07 784.251L712.78 713.517Z" fill="white"/>
<path d="M815.468 697.004C815.295 693.892 815.912 690.788 817.26 687.978C818.608 685.169 820.643 682.745 823.178 680.932C826.44 678.322 833.438 680.042 834.209 684.193C834.98 688.345 836.462 690.124 840.139 689.235C843.816 688.345 845.061 684.905 845.121 681.881C845.393 679.377 845.013 676.845 844.017 674.532C843.021 672.219 841.443 670.202 839.437 668.68C837.431 667.157 835.065 666.18 832.569 665.843C830.073 665.506 827.532 665.821 825.194 666.757C821.103 668.495 817.412 671.056 814.352 674.28C811.291 677.504 808.926 681.322 807.402 685.498C805.097 690.115 803.956 695.226 804.081 700.384C804.021 700.638 804.021 700.902 804.081 701.155C804.615 704.18 805.386 707.086 808.766 708.153C810.664 708.628 814.697 703.527 815.053 700.977C815.527 699.672 815.468 698.368 815.468 697.004Z" fill="url(#paint0_linear)"/>
<path d="M779.113 719.125C779.052 715.033 777.404 711.125 774.516 708.226C771.628 705.326 767.726 703.663 763.634 703.586C760.125 703.952 756.792 705.309 754.027 707.5C747.317 712.107 742.412 718.898 740.149 726.716C738.844 731.876 735.879 737.628 739.437 743.44C740.327 744.863 740.505 746.168 742.521 746.228C743.433 746.387 744.372 746.262 745.21 745.87C746.048 745.477 746.745 744.836 747.207 744.033C748.793 741.31 749.478 738.155 749.164 735.019C749.065 732.167 749.605 729.329 750.744 726.712C751.883 724.096 753.592 721.767 755.747 719.896C756.372 719.196 757.129 718.627 757.975 718.221C758.822 717.815 759.74 717.581 760.677 717.532C761.614 717.482 762.551 717.618 763.435 717.932C764.32 718.246 765.133 718.732 765.829 719.362C767.18 720.52 768.031 722.157 768.201 723.928C768.412 725.09 768.965 726.162 769.789 727.007C770.614 727.852 771.671 728.432 772.827 728.673C774.191 729.088 778.757 724.106 779.113 722.268C779.172 721.221 779.172 720.172 779.113 719.125Z" fill="url(#paint1_linear)"/>
<g clip-path="url(#clip0)">
<path d="M838.581 756.746C838.544 756.602 838.476 756.48 838.368 756.413C838.294 756.358 838.197 756.372 838.061 756.457L836.172 757.554L836.035 756.138L836.032 756.122C836.016 756.008 835.944 755.969 835.829 755.969C835.663 755.96 835.489 756.018 835.302 756.094C834.771 756.303 834.252 756.592 833.728 756.965C833.458 757.152 833.206 757.353 832.98 757.617C832.839 757.786 832.763 757.945 832.784 758.091L832.936 759.489L831.657 760.234L831.641 760.236C831.551 760.299 831.479 760.375 831.426 760.465C831.362 760.59 831.315 760.729 831.299 760.846C831.233 761.186 831.3 761.886 831.388 762.154C831.426 762.298 831.493 762.42 831.601 762.487C831.675 762.542 831.772 762.528 831.908 762.443L833.171 761.7L833.565 765.473C833.663 766.499 833.775 767.507 833.873 768.532C833.889 768.646 833.905 768.759 833.919 768.856C834.072 769.577 834.719 769.83 835.65 769.532C836.202 769.353 836.735 769.045 837.275 768.671C837.739 768.34 838.18 767.963 838.582 767.542C838.623 767.486 838.667 767.447 838.644 767.401C838.516 766.973 838.389 766.546 838.245 766.121C838.208 765.978 838.127 765.989 837.95 766.13C837.846 766.211 837.74 766.276 837.633 766.341C837.359 766.496 837.209 766.485 837.116 766.3C837.067 766.191 837.049 766.062 837.03 765.932L836.394 759.784L838.312 758.666L838.328 758.664C838.418 758.601 838.49 758.525 838.543 758.435C838.608 758.31 838.654 758.171 838.67 758.054C838.718 757.7 838.653 757.016 838.581 756.746Z" fill="white"/>
<path d="M814.027 773.614L814.083 774.233L813.573 769.305L813.57 769.288C813.554 769.175 813.483 769.136 813.367 769.136C813.201 769.127 813.028 769.185 812.841 769.261C812.309 769.47 811.79 769.759 811.266 770.131C810.996 770.319 810.744 770.52 810.518 770.784C810.378 770.953 810.301 771.112 810.322 771.258L811.565 783.345L811.567 783.361C811.584 783.474 811.655 783.513 811.771 783.513C811.937 783.522 812.11 783.464 812.297 783.388C812.828 783.179 813.348 782.89 813.872 782.518C814.142 782.33 814.393 782.129 814.619 781.865C814.76 781.697 814.836 781.537 814.815 781.392L814.759 780.888C815.189 781.008 815.637 781.026 816.12 780.94C816.603 780.854 817.055 780.673 817.512 780.41C818.059 780.083 818.579 779.678 819.068 779.179C819.557 778.679 819.989 778.122 820.344 777.493C820.701 776.881 820.985 776.213 821.166 775.526C821.346 774.823 821.394 774.123 821.326 773.423C821.268 772.788 821.11 772.266 820.87 771.854C820.629 771.443 820.324 771.157 819.94 771.014C819.554 770.855 819.104 770.821 818.605 770.909C818.09 770.999 817.529 771.229 816.92 771.58C816.449 771.863 815.987 772.21 815.539 772.654C815.105 773.079 814.695 773.551 814.326 774.083L814.093 774.413L814.067 774.235L814.027 773.614ZM817.881 777.468C817.554 778.059 817.125 778.517 816.608 778.823C816.349 778.975 816.086 779.096 815.8 779.17C815.515 779.26 815.236 779.268 814.933 779.228L814.579 775.846C815.086 775.013 815.645 774.421 816.238 774.072C817.409 773.375 818.077 773.775 818.226 775.272C818.333 776.132 818.206 776.86 817.881 777.468Z" fill="white"/>
<path d="M830.469 764.482C829.959 764.374 829.386 764.407 828.748 764.564C828.111 764.722 827.474 764.995 826.804 765.389C826.151 765.78 825.509 766.252 824.914 766.816C824.319 767.38 823.795 767.984 823.361 768.641C822.928 769.297 822.598 769.988 822.372 770.714C822.147 771.44 822.069 772.161 822.152 772.859C822.222 773.575 822.433 774.123 822.768 774.504C823.106 774.901 823.536 775.136 824.046 775.244C824.557 775.353 825.13 775.32 825.765 775.146C826.402 774.988 827.056 774.713 827.709 774.322C828.362 773.931 828.988 773.461 829.583 772.897C830.179 772.332 830.686 771.731 831.12 771.074C831.553 770.418 831.883 769.727 832.109 769.001C832.334 768.275 832.415 767.57 832.328 766.856C832.258 766.14 832.048 765.592 831.712 765.211C831.393 764.828 830.98 764.59 830.469 764.482ZM828.886 770.801C828.614 771.435 828.157 771.93 827.518 772.302C826.862 772.677 826.361 772.749 826.012 772.502C825.647 772.257 825.427 771.761 825.352 771.012C825.278 770.264 825.378 769.589 825.65 768.955C825.925 768.338 826.379 767.827 827.035 767.452C827.674 767.08 828.159 767.01 828.543 767.268C828.908 767.513 829.128 768.01 829.219 768.756C829.273 769.475 829.174 770.166 828.886 770.801Z" fill="white"/>
<path d="M785.668 799.25C785.287 799.47 784.932 799.637 784.569 799.755C783.546 800.1 782.812 799.81 782.647 799.008C782.631 798.895 782.614 798.782 782.598 798.668L782.097 793.804C782.083 793.707 782.177 793.562 782.3 793.495C782.422 793.428 782.54 793.444 782.538 793.543L783.039 798.407C783.055 798.52 783.072 798.633 783.086 798.73C783.213 799.389 783.823 799.615 784.641 799.332C785.128 799.163 785.62 798.911 786.174 798.518C786.607 798.208 787.004 797.87 787.364 797.504C787.269 797.188 787.174 796.871 787.079 796.555L786.991 796.287C786.991 796.287 786.991 796.287 786.989 796.271C786.973 796.273 786.975 796.289 786.959 796.292C786.855 796.373 786.735 796.456 786.597 796.525C786.213 796.729 785.98 796.713 785.846 796.468C785.779 796.346 785.774 796.198 785.753 796.052L785.191 790.421C785.186 790.389 785.166 790.359 785.083 790.354C784.967 790.354 784.84 790.389 784.634 790.452C784.166 790.635 783.676 790.903 783.136 791.278C782.926 791.424 782.675 791.625 782.476 791.852C782.391 791.946 782.352 792.018 782.363 792.099C782.366 792.115 782.366 792.115 782.368 792.131C782.366 792.231 782.271 792.376 782.149 792.443C782.026 792.51 781.925 792.492 781.911 792.395C781.897 792.182 781.993 791.937 782.206 791.692C782.473 791.373 782.787 791.146 783.041 790.961C783.625 790.547 784.177 790.253 784.708 790.045C784.881 789.987 785.117 789.904 785.332 789.906C785.514 789.913 785.625 789.996 785.648 790.157L785.651 790.174L786.226 795.786C786.245 795.915 786.245 796.031 786.289 796.107C786.356 796.23 786.405 796.223 786.589 796.13C786.682 796.084 786.769 796.005 786.859 795.943C786.963 795.862 787.116 795.774 787.247 795.771C787.379 795.769 787.425 795.861 787.437 795.942L787.525 796.21C787.622 796.543 787.738 796.889 787.835 797.222C787.868 797.333 787.822 797.472 787.663 797.627C787.245 798.05 786.776 798.464 786.282 798.816C786.093 798.991 785.883 799.137 785.668 799.25Z" fill="white"/>
<path d="M807.772 786.234C807.392 786.454 807.036 786.62 806.673 786.739C805.651 787.084 804.916 786.793 804.751 785.991C804.735 785.878 804.718 785.765 804.702 785.652L804.201 780.788C804.187 780.691 804.282 780.545 804.404 780.478C804.526 780.411 804.644 780.427 804.642 780.526L805.143 785.39C805.159 785.503 805.176 785.617 805.19 785.714C805.317 786.372 805.927 786.598 806.745 786.316C807.232 786.147 807.724 785.894 808.278 785.501C808.712 785.191 809.109 784.853 809.469 784.488C809.374 784.171 809.279 783.855 809.184 783.538L809.096 783.27C809.096 783.27 809.096 783.27 809.093 783.254C809.077 783.256 809.079 783.273 809.063 783.275C808.959 783.356 808.839 783.439 808.701 783.509C808.318 783.712 808.084 783.696 807.95 783.451C807.883 783.329 807.878 783.181 807.857 783.036L807.295 777.405C807.291 777.372 807.27 777.342 807.187 777.338C807.071 777.338 806.944 777.373 806.739 777.435C806.27 777.618 805.78 777.886 805.24 778.261C805.03 778.407 804.779 778.608 804.58 778.835C804.495 778.93 804.456 779.001 804.467 779.082C804.47 779.098 804.47 779.098 804.472 779.115C804.47 779.214 804.375 779.36 804.253 779.427C804.13 779.494 804.029 779.475 804.015 779.378C804.001 779.166 804.098 778.921 804.31 778.676C804.578 778.357 804.891 778.13 805.145 777.945C805.729 777.531 806.281 777.237 806.812 777.028C806.985 776.97 807.221 776.887 807.436 776.889C807.618 776.896 807.729 776.979 807.752 777.141L807.755 777.157L808.331 782.769C808.349 782.899 808.349 783.014 808.393 783.091C808.46 783.213 808.509 783.206 808.693 783.114C808.786 783.067 808.874 782.989 808.964 782.926C809.067 782.845 809.22 782.757 809.351 782.755C809.483 782.752 809.529 782.845 809.541 782.926L809.629 783.194C809.726 783.526 809.842 783.873 809.939 784.206C809.972 784.316 809.926 784.455 809.767 784.61C809.349 785.033 808.88 785.447 808.386 785.799C808.197 785.975 807.987 786.12 807.772 786.234Z" fill="white"/>
<path d="M779.311 803.004C778.9 803.245 778.498 803.434 778.108 803.59L778.062 803.613C777.826 803.696 777.561 803.8 777.355 803.747C777.219 803.717 776.927 803.528 776.893 803.517L773.921 801.666C773.875 801.689 773.828 801.712 773.814 801.731C773.784 801.751 773.754 801.772 773.724 801.793L774.076 805.16L774.079 805.176L774.081 805.192C774.1 805.437 773.971 805.687 773.747 805.966C773.422 806.343 773.064 806.609 772.75 806.836C772.046 807.334 771.388 807.692 770.746 807.933C770.543 808.012 770.275 808.1 770.009 808.088C769.811 808.084 769.7 808.001 769.663 807.858L769.66 807.842L769.658 807.825L769.656 807.809L769.653 807.793L768.252 794.144C768.252 794.144 768.252 794.144 768.25 794.128C768.231 793.883 768.339 793.603 768.579 793.321C768.905 792.944 769.263 792.678 769.576 792.451C770.28 791.954 770.938 791.595 771.58 791.355C771.784 791.276 772.051 791.188 772.317 791.199C772.532 791.201 772.645 791.3 772.671 791.478L772.673 791.495L773.442 799.027C773.489 799.004 773.502 798.986 773.532 798.965C773.562 798.944 773.595 798.939 773.639 798.9L775.9 793.969C775.925 793.916 776.137 793.44 776.26 793.257C776.432 792.968 776.684 792.767 776.906 792.586L776.949 792.547C777.57 792.045 778.221 791.638 778.932 791.305C779.258 791.159 779.63 790.99 779.99 790.971L780.006 790.969C780.186 790.959 780.641 790.91 780.418 791.421L777.391 798.146L781.378 800.742C781.672 800.948 781.263 801.436 781.09 801.609L781.076 801.628C780.751 802.005 780.393 802.271 780.079 802.497C779.842 802.68 779.569 802.851 779.311 803.004ZM773.927 801.252C773.987 801.211 774.126 801.141 774.251 801.206L777.26 803.084C777.368 803.151 777.583 803.269 777.653 803.292C777.757 803.326 777.944 803.25 778.131 803.174L778.177 803.151C778.756 802.935 779.352 802.602 780.012 802.144C780.282 801.956 780.58 801.732 780.834 801.431L780.848 801.413C780.903 801.339 781.032 801.205 781.041 801.154C781.041 801.154 781.041 801.154 781.023 801.14L777.02 798.546L777.001 798.532C776.964 798.504 776.941 798.458 776.934 798.41C776.927 798.361 776.936 798.31 776.959 798.241C776.973 798.223 776.971 798.206 776.985 798.188L780.023 791.429C780.037 791.41 780.034 791.394 780.034 791.394C780.013 791.364 779.884 791.382 779.819 791.392L779.803 791.394C779.526 791.417 779.214 791.545 778.937 791.684C778.272 791.994 777.684 792.376 777.121 792.82L777.061 792.861C776.883 793.002 776.705 793.144 776.627 793.287C776.56 793.396 776.394 793.733 776.32 793.909L774.017 798.895C773.93 799.089 773.777 799.177 773.715 799.203C773.639 799.247 773.593 799.27 773.563 799.291C773.517 799.314 773.503 799.332 773.35 799.42C773.304 799.443 773.198 799.508 773.096 799.49C772.995 799.471 772.997 799.372 772.992 799.34L772.978 799.243L772.207 791.694C772.2 791.645 772.177 791.599 772.061 791.599C771.913 791.604 771.752 791.627 771.502 791.729C770.923 791.944 770.327 792.278 769.683 792.733C769.413 792.921 769.115 793.145 768.861 793.446C768.748 793.578 768.698 793.684 768.714 793.797C768.714 793.797 768.714 793.797 768.716 793.813L770.113 807.545C770.12 807.594 770.157 807.622 770.256 807.624C770.404 807.619 770.565 807.596 770.815 807.494C771.394 807.279 771.99 806.945 772.65 806.487C772.92 806.3 773.218 806.075 773.472 805.775C773.585 805.643 773.636 805.537 773.619 805.423L773.267 801.941C773.267 801.941 773.265 801.925 773.263 801.909C773.263 801.909 773.263 801.909 773.26 801.893C773.253 801.844 773.276 801.775 773.329 801.685C773.41 801.558 773.532 801.491 773.562 801.47C773.715 801.382 773.715 801.382 773.775 801.34C773.807 801.335 773.853 801.312 773.927 801.252Z" fill="white"/>
<path d="M799.515 791.004C798.1 791.834 796.765 791.96 795.997 791.328C795.44 792.728 794.235 794.107 792.82 794.937C790.735 796.162 788.88 795.768 788.685 794.063C788.685 794.063 788.685 794.063 788.682 794.046L788.68 794.03L788.142 788.792C788.111 788.582 788.21 788.353 788.423 788.108C788.693 787.805 788.99 787.581 789.228 787.398C789.798 787.002 790.334 786.711 790.849 786.504C791.022 786.447 791.241 786.366 791.456 786.368C791.639 786.374 791.733 786.46 791.757 786.622L791.759 786.638L792.258 791.485C792.314 791.874 792.72 791.947 793.194 791.681C793.664 791.399 794.015 790.853 793.975 790.463C793.975 790.463 793.975 790.463 793.973 790.447L793.481 785.647C793.467 785.435 793.55 785.208 793.762 784.963C794.032 784.66 794.33 784.436 794.584 784.251C795.154 783.855 795.687 783.547 796.205 783.357C796.378 783.299 796.597 783.218 796.812 783.221C796.994 783.227 797.089 783.313 797.112 783.474L797.611 788.322C797.639 788.516 797.739 788.634 797.91 788.676C798.081 788.717 798.305 788.668 798.547 788.518C799.018 788.236 799.371 787.706 799.331 787.316L798.835 782.484C798.821 782.271 798.904 782.045 799.116 781.8C799.386 781.497 799.683 781.272 799.937 781.087C800.508 780.692 801.041 780.384 801.558 780.194C801.731 780.136 801.951 780.055 802.165 780.057C802.348 780.064 802.443 780.149 802.464 780.295C802.464 780.295 802.464 780.295 802.466 780.311L803.004 785.549L803.007 785.566L803.009 785.582C803.179 787.34 801.616 789.777 799.515 791.004ZM795.925 790.711C795.971 790.688 796.001 790.667 796.052 790.676C796.101 790.669 796.135 790.68 796.156 790.71C796.78 791.496 798.079 791.458 799.48 790.645C801.336 789.553 802.711 787.408 802.557 785.878L802.554 785.862L802.552 785.846L802.016 780.624L802.013 780.607C802.009 780.575 801.988 780.545 801.921 780.538C801.806 780.538 801.676 780.557 801.489 780.633C801.02 780.816 800.545 781.066 800.037 781.436C799.827 781.582 799.589 781.765 799.391 781.991C799.305 782.086 799.282 782.156 799.294 782.236C799.294 782.236 799.294 782.236 799.296 782.253L799.791 787.068C799.791 787.068 799.791 787.068 799.793 787.084C799.793 787.084 799.793 787.084 799.795 787.1L799.8 787.133L799.802 787.149C799.821 787.74 799.291 788.526 798.591 788.941C797.859 789.36 797.229 789.219 797.177 788.632L796.678 783.784C796.674 783.752 796.653 783.722 796.586 783.715C796.471 783.715 796.341 783.734 796.154 783.81C795.685 783.993 795.21 784.243 794.702 784.613C794.492 784.759 794.254 784.942 794.056 785.169C793.97 785.263 793.947 785.333 793.959 785.414C793.959 785.414 793.959 785.414 793.961 785.43L794.46 790.277L794.463 790.294C794.498 790.883 793.97 791.685 793.254 792.102C792.554 792.516 791.926 792.392 791.829 791.828L791.826 791.812L791.824 791.795C791.824 791.795 791.824 791.795 791.822 791.779L791.323 786.932C791.318 786.899 791.297 786.869 791.233 786.879C791.117 786.879 790.988 786.897 790.801 786.974C790.332 787.157 789.856 787.407 789.349 787.777C789.139 787.922 788.901 788.105 788.702 788.332C788.617 788.427 788.594 788.496 788.606 788.577C788.606 788.577 788.606 788.577 788.608 788.593L789.149 793.847C789.319 795.375 790.955 795.734 792.811 794.642C794.21 793.813 795.375 792.391 795.771 791.014C795.794 790.944 795.833 790.872 795.893 790.831C795.881 790.75 795.911 790.729 795.925 790.711Z" fill="white"/>
<path d="M781.973 789.497C781.638 789.694 781.363 789.618 781.342 789.357C781.305 788.867 781.5 788.278 781.879 787.695C782.271 787.094 782.808 786.587 783.388 786.256C783.709 786.078 783.981 786.138 784.002 786.399C784.024 786.66 783.779 787.026 783.458 787.204C783.2 787.356 782.953 787.59 782.761 787.865C782.572 788.156 782.482 788.45 782.499 788.679C782.522 788.956 782.294 789.319 781.973 789.497Z" fill="white"/>
<path d="M785.237 787.641L785.221 787.644C784.9 787.822 784.627 787.762 784.604 787.485C784.585 787.24 784.465 787.092 784.243 787.041C784.021 786.991 783.749 787.046 783.46 787.22C783.139 787.398 782.867 787.338 782.846 787.077C782.825 786.816 783.069 786.451 783.39 786.273C783.986 785.939 784.561 785.807 785.023 785.922C785.469 786.04 785.73 786.365 785.768 786.855C785.786 787.1 785.539 787.449 785.237 787.641Z" fill="white"/>
<path d="M804.063 776.499C804.047 776.502 804.047 776.502 804.063 776.499C803.728 776.696 803.453 776.62 803.432 776.359C803.395 775.869 803.591 775.279 803.969 774.697C804.361 774.096 804.883 773.592 805.478 773.258C805.799 773.08 806.072 773.14 806.093 773.401C806.114 773.662 805.869 774.027 805.548 774.206C805.29 774.358 805.043 774.592 804.852 774.867C804.662 775.158 804.573 775.452 804.589 775.681C804.612 775.958 804.368 776.323 804.063 776.499Z" fill="white"/>
<path d="M807.311 774.645L807.295 774.648C806.974 774.826 806.702 774.766 806.678 774.489C806.66 774.244 806.539 774.096 806.317 774.045C806.096 773.995 805.823 774.05 805.535 774.224C805.214 774.402 804.941 774.342 804.92 774.081C804.899 773.82 805.144 773.455 805.464 773.276C806.06 772.943 806.635 772.811 807.097 772.926C807.543 773.044 807.804 773.369 807.842 773.859C807.86 774.104 807.63 774.451 807.311 774.645Z" fill="white"/>
</g>
<circle cx="295.5" cy="373.5" r="285.5" fill="#73D02F" stroke="white" stroke-width="20"/>
<path fill-rule="evenodd" clip-rule="evenodd" d="M211.955 469.193C212.582 470.246 213.349 471.239 214.256 472.145L240.939 498.788C246.801 504.642 256.299 504.635 262.152 498.773L467.893 292.723C473.747 286.86 473.74 277.363 467.877 271.51L441.194 244.866C435.332 239.013 425.835 239.02 419.981 244.882L251.835 413.281L179.292 340.386C173.449 334.514 163.951 334.491 158.079 340.335L131.351 366.933C125.479 372.777 125.456 382.274 131.3 388.146L211.955 469.193Z" fill="#D6D6D6"/>
<path fill-rule="evenodd" clip-rule="evenodd" d="M210.42 456.642C211.041 457.676 211.798 458.652 212.69 459.543L237.951 484.765C243.813 490.618 253.31 490.611 259.164 484.749L458.166 285.449C464.019 279.586 464.012 270.089 458.15 264.235L432.889 239.013C427.027 233.159 417.53 233.167 411.676 239.029L248.838 402.111L178.764 331.697C172.92 325.825 163.423 325.802 157.551 331.645L132.248 356.826C126.376 362.669 126.353 372.167 132.197 378.039L210.42 456.642Z" fill="white"/>
<defs>
<linearGradient id="paint0_linear" x1="9502.4" y1="-314496" x2="9786.89" y2="-314496" gradientUnits="userSpaceOnUse">
<stop stop-color="#687CFE"/>
<stop offset="0.18" stop-color="#6778FB"/>
<stop offset="0.3" stop-color="#656FF5"/>
<stop offset="0.49" stop-color="#6059E6"/>
<stop offset="0.72" stop-color="#5734CE"/>
<stop offset="0.99" stop-color="#4C02AC"/>
<stop offset="1" stop-color="#4C00AB"/>
</linearGradient>
<linearGradient id="paint1_linear" x1="10085.7" y1="-318329" x2="10375.1" y2="-318329" gradientUnits="userSpaceOnUse">
<stop stop-color="#687CFE"/>
<stop offset="0.18" stop-color="#6778FB"/>
<stop offset="0.3" stop-color="#656FF5"/>
<stop offset="0.49" stop-color="#6059E6"/>
<stop offset="0.72" stop-color="#5734CE"/>
<stop offset="0.99" stop-color="#4C02AC"/>
<stop offset="1" stop-color="#4C00AB"/>
</linearGradient>
<clipPath id="clip0">
<rect width="75.506" height="42.2556" fill="white" transform="translate(763.692 766.323) rotate(-8.18052)"/>
</clipPath>
</defs>
</svg>
