<svg width="641" height="1098" viewBox="0 0 641 1098" fill="none" xmlns="http://www.w3.org/2000/svg">
<path fill-rule="evenodd" clip-rule="evenodd" d="M74.2503 772.88L68.1733 806.304C68.4977 822.633 73.2334 856.174 88.3994 882.23C67.1358 905.946 38.5305 915.452 18.8812 903.388C-4.59329 888.975 -6.3963 849.233 14.854 814.623C30.2863 789.489 53.6327 773.973 74.2503 772.88Z" fill="#181818"/>
<path fill-rule="evenodd" clip-rule="evenodd" d="M70.0765 795.84L68.1739 806.304C68.4939 822.41 73.1054 855.261 87.7842 881.157C71.785 897.193 51.3866 903.211 37.1228 894.453C19.0638 883.365 17.6767 852.792 34.0247 826.166C43.5372 810.673 56.9583 799.931 70.0765 795.84Z" fill="#070707"/>
<path opacity="0.9" fill-rule="evenodd" clip-rule="evenodd" d="M94.5369 886.377C86.0629 874.016 80.3317 859.268 76.5857 845.241C74.7268 847.258 72.9966 849.534 71.4569 852.042C62.6713 866.351 63.4168 882.781 73.1219 888.74C79.1411 892.436 87.193 891.235 94.5369 886.377Z" fill="#2D2C29"/>
<path d="M240.42 25.232L146.61 97.0079L148.016 110.196C148.904 118.525 155.559 121.013 158.776 121.217C180.818 125.497 226.339 134.372 232.084 135.631C237.829 136.891 241.77 135.846 243.022 135.167L251.858 128.141C251.512 107.352 250.946 61.6896 251.448 45.3499C251.951 29.0102 244.305 25.1297 240.42 25.232Z" fill="#697DFF"/>
<path d="M62.4917 841.437L98.3292 587.588C106.791 562.701 112.764 558.968 126.949 547.271C141.882 532.09 256.114 460.415 274.53 450.211C320.721 430.5 374.41 443.492 395.482 452.451C402.782 456.35 426.79 469.623 464.419 491.524C516.782 522.981 526.056 557.392 524.148 570.665C528.296 602.354 537.089 670.462 539.08 689.376C541.071 708.291 543.726 730.108 544.804 738.653L542.316 782.206V798.88C548.455 794.4 562.972 785.59 571.931 786.187C660.032 811.821 569.692 920.08 547.044 921.822C492.541 923.067 503.741 867.817 505.981 863.089C507.772 859.306 506.727 856.867 505.981 856.12C471.387 878.187 397.025 924.809 376.319 934.764C380.798 938.497 395.979 949.945 391.749 976.076C382.291 1032.57 352.178 1060.94 327.291 1065.42C266.068 1068.66 283.738 1009.67 285.729 1001.46C281.747 993 282.743 991.506 283.738 984.04C284.485 976.574 277.268 972.094 270.548 973.836C258.353 975.579 258.851 978.565 236.702 973.836C156.565 946.461 99.3246 907.388 78.1706 884.989C61.2473 867.071 60.6666 848.488 62.4917 841.437Z" fill="black" stroke="black"/>
<ellipse rx="56.2539" ry="82.9395" transform="matrix(-0.852188 -0.523235 -0.523235 0.852188 342.224 997.776)" fill="#181818"/>
<ellipse rx="43.2763" ry="63.8057" transform="matrix(-0.852188 -0.523235 -0.523235 0.852188 352.786 1004)" fill="#070707"/>
<ellipse rx="50.2398" ry="74.0724" transform="matrix(-0.852188 -0.523235 -0.523235 0.852188 559.429 855.323)" fill="#181818"/>
<ellipse rx="38.6497" ry="56.9842" transform="matrix(-0.852188 -0.523235 -0.523235 0.852188 568.862 860.885)" fill="#070707"/>
<path d="M66.1194 774.719L94.2419 605.984C96.7306 603.495 95.984 614.445 96.4817 638.586C96.8799 664.668 112.244 681.475 119.876 686.618C141.113 698.647 189.659 725.591 213.949 737.139C238.239 748.687 259.575 741.951 267.207 737.139C277.162 725.525 283.937 686.674 292.698 685.479C301.458 686.077 323.226 678.926 333.015 675.275C364.124 656.61 435.948 610.271 444.509 604.099C459.193 593.513 466.102 612.856 470.287 625.147C484.887 668.036 515.133 756.899 519.314 769.243C523.495 781.588 516.079 789.817 511.848 792.389C500.151 800.269 461.377 826.185 399.856 866.801C322.955 917.571 258.497 911.1 211.958 898.657C163.179 884.969 110.17 849.131 84.7847 828.973C64.4768 812.846 63.8795 786.084 66.1194 774.719Z" fill="white"/>
<path d="M499.862 567.939C525.801 545.997 508.176 513.36 496.121 499.784C443.836 464.045 394.11 440.523 380.142 434.538C334 422.071 304.486 429.967 280.376 442.019C235.066 466.538 143.198 530.537 113.268 555.888C87.9936 583.482 99.1543 613.511 125.738 628.198C146.8 639.835 194.078 665.351 214.697 674.328C283.868 700.592 338.019 680.007 356.448 666.432C393.444 642.744 473.923 589.882 499.862 567.939Z" fill="#697DFF"/>
<path d="M494.509 563.294C519.817 541.879 502.621 510.027 490.859 496.778C439.845 461.898 391.328 438.942 377.7 433.101C332.68 420.934 303.884 428.64 280.36 440.402C236.151 464.332 146.517 526.792 117.315 551.532C92.6553 578.463 104.021 608.033 129.482 622.104C150.032 633.46 196.161 658.363 216.278 667.124C283.767 692.757 336.601 672.667 354.582 659.418C390.679 636.3 469.2 584.709 494.509 563.294Z" fill="#181816"/>
<path d="M473.141 542.359C494.885 523.925 485.677 494.31 470.005 485.101C442.477 468.924 387.472 439.751 375.763 434.724C337.084 424.249 309.365 426.445 289.154 436.57C251.172 457.17 174.162 510.937 149.073 532.234C127.887 555.417 129.857 577.831 153.412 590.874C171.068 600.65 216.814 624.198 234.098 631.739C292.081 653.805 337.474 636.511 352.922 625.105C383.935 605.204 451.397 560.794 473.141 542.359Z" fill="#2D2C29"/>
<path d="M247.413 119.667V17.8048C253.901 20.4021 257.84 29.1679 258.998 33.2262C259.771 66.9097 259.771 134.277 253.592 134.277C248.34 131.679 247.285 123.455 247.413 119.667Z" fill="#262626"/>
<path d="M249.608 123.457V20.0875C253.219 23.6987 254.122 26.708 254.122 27.7612V127.971C250.872 127.971 249.759 124.962 249.608 123.457Z" fill="#C4C4C4"/>
<path d="M264.053 138.353V482.768L255.928 475.545V138.353C251.594 136.186 252.617 129.325 253.671 126.165C253.821 100.135 253.671 45.1002 253.671 33.1779C253.671 29.7504 253.671 29.5015 247.154 33.1779C202.357 68.5743 145.418 112.376 144.121 106.901C142.825 101.425 142.33 101.425 142.628 99.9321C142.927 98.4389 238.692 14.3203 242.674 9.59181C246.657 4.86327 253.671 0.226074 257.282 0.226074C265.407 2.93445 268.567 3.38584 271.275 12.4137C276.24 29.5668 272.629 120.749 272.629 123.457C272.629 125.624 271.726 127.67 271.275 128.422L264.053 138.353Z" fill="black"/>
<path opacity="0.35" d="M24.0928 902.374C17.8897 905.961 12.1065 910.229 6.85082 915.1C6.1569 916.542 5.93081 918.166 6.20418 919.743C6.47756 921.32 7.23679 922.772 8.37568 923.897C11.1156 925.827 14.2941 927.042 17.6227 927.431C20.9514 927.82 24.3245 927.371 27.4357 926.126C36.5259 922.49 45.8506 919.44 54.8235 915.393C59.2806 913.399 60.6882 915.042 63.1513 918.912C65.4523 924.215 66.7261 929.907 66.9048 935.685C68.5413 944.222 72.1567 952.257 77.461 959.144C85.7217 970.713 96.1848 980.538 108.25 988.056C130.184 1000.9 152.646 1012.8 174.931 1025C183.451 1029.69 192.484 1033.37 201.85 1035.97C225.402 1042.83 249.752 1046.58 274.278 1047.11C280.143 1047.11 286.418 1046.23 292.458 1047.11C293.104 1044.77 291.11 1043.59 290.113 1041.95C288.103 1037.42 286.779 1032.62 286.183 1027.7C284.435 1017.08 285.466 1006.19 289.174 996.091C289.465 995.255 289.465 994.346 289.174 993.51C287.691 989.952 287.068 986.094 287.356 982.25C288.089 979.165 288.089 975.951 287.356 972.867C286.85 972.523 286.378 972.13 285.949 971.694C284.55 969.46 282.378 967.819 279.847 967.084C277.316 966.348 274.603 966.569 272.225 967.706C267.107 969.585 261.66 970.404 256.215 970.11C247.594 968.937 238.973 967.354 230.528 965.36C223.535 963.824 216.641 961.865 209.884 959.495C197.491 954.736 185.474 949.05 173.934 942.488C165.724 938.383 157.924 933.574 149.889 929.175C140.154 923.839 130.184 918.854 120.566 913.048C114.701 909.294 109.13 905.189 103.676 900.849C99.4322 897.033 95.5092 892.875 91.9467 888.416C89.7181 886.07 88.3105 882.258 85.2609 881.496C82.2113 880.733 82.1527 885.015 79.9828 886.187H79.6309C79.4823 886.532 79.2572 886.837 78.9726 887.081C78.6881 887.325 78.3516 887.501 77.9888 887.595C77.8481 887.944 77.6255 888.254 77.3397 888.499C77.0539 888.744 76.7133 888.917 76.3467 889.002C76.206 889.352 75.9834 889.662 75.6976 889.907C75.4118 890.152 75.0712 890.324 74.7046 890.41C74.5596 890.762 74.3365 891.078 74.0521 891.332C73.7677 891.586 73.4293 891.772 73.0626 891.876C70.6768 893.849 68.1697 895.671 65.5558 897.33C57.7559 903.898 47.962 904.661 38.8718 907.007C38.2621 907.205 37.6173 907.27 36.9803 907.199C36.3432 907.129 35.7285 906.923 35.1771 906.596C31.6583 903.547 27.2011 904.837 24.0928 902.374Z" fill="#181816"/>
<path opacity="0.35" d="M591.907 878.915L591.614 880.439C591.614 881.495 590.617 881.788 589.737 882.14C587.024 886.982 583.627 891.407 579.65 895.277C579.537 895.649 579.324 895.982 579.035 896.241C578.745 896.5 578.39 896.674 578.008 896.743C577.866 897.102 577.636 897.42 577.338 897.666C577.041 897.912 576.686 898.079 576.307 898.151C576.191 898.515 575.976 898.84 575.686 899.088C575.396 899.337 575.042 899.5 574.665 899.558C574.552 899.93 574.34 900.264 574.05 900.522C573.76 900.781 573.405 900.955 573.023 901.024C572.889 901.394 572.662 901.724 572.365 901.981C572.067 902.238 571.707 902.413 571.322 902.49C571.204 902.859 570.989 903.189 570.701 903.447C570.412 903.705 570.059 903.881 569.68 903.957C569.538 904.316 569.308 904.633 569.01 904.879C568.713 905.126 568.358 905.292 567.979 905.364C555.253 915.627 541.471 920.495 524.874 915.334C517.777 912.919 511.837 907.941 508.218 901.376C503.616 892.605 501.43 882.768 501.885 872.874C501.885 867.01 504.7 861.614 504.582 855.808C504.582 855.046 504.934 854.224 504.23 853.697C503.527 853.169 502.823 853.697 502.236 854.342C495.727 858.565 489.276 863.022 482.707 867.127C476.823 871.482 470.629 875.402 464.175 878.856C461.138 882.522 457.308 885.449 452.974 887.418C445.701 892.051 438.664 897.036 431.157 901.376C421.832 906.83 413.915 914.572 403.417 918.032L394.562 921.609C393.565 923.779 391.16 923.603 389.518 924.6C389.049 925.363 388.639 926.184 387.583 926.125H386.058L384.768 927.181C384.627 927.53 384.405 927.84 384.119 928.085C383.833 928.33 383.492 928.503 383.126 928.588C382.539 930.582 380.252 930.23 378.727 931.52C384.592 933.104 386.586 938.675 388.404 942.78C392.508 951.87 394.03 961.914 392.802 971.81C393.124 972.781 393.124 973.831 392.802 974.801C392.926 977.194 392.267 979.561 390.926 981.546C391.093 983.339 390.934 985.147 390.457 986.883C390.457 988.29 389.636 988.994 388.814 989.815C389.061 991.35 388.92 992.923 388.404 994.39C388.404 995.328 387.583 995.445 386.938 995.797V998.846C386.938 1000.02 386.234 1000.49 385.413 1001.02L385.061 1003.3C385.061 1004.24 384.24 1004.36 383.595 1004.77C383.801 1005.78 383.677 1006.83 383.243 1007.76C383.243 1008.7 382.422 1008.82 381.836 1009.17L381.484 1010.69C381.484 1011.63 380.721 1011.81 380.076 1012.16L379.783 1013.68C379.783 1014.56 378.551 1014.74 378.903 1015.74C381.836 1016.03 383.771 1013.8 385.941 1012.45C398.257 1004.54 410.455 996.442 422.712 988.349L474.321 954.334C482.355 949.056 490.507 943.953 498.542 938.734C500.146 937.689 501.993 937.076 503.904 936.953C505.814 936.829 507.725 937.2 509.45 938.03C512.18 939.175 515.111 939.765 518.071 939.765C521.031 939.765 523.962 939.175 526.692 938.03C536.942 932.997 546.751 927.111 556.015 920.436C564.812 915.041 573.257 909 581.937 903.37C588.264 899.424 594.248 894.951 599.824 889.999C600.57 889.273 601.132 888.38 601.461 887.393C601.791 886.405 601.879 885.353 601.718 884.325C601.557 883.297 601.152 882.323 600.537 881.483C599.921 880.644 599.114 879.964 598.182 879.501C596.888 878.68 595.374 878.27 593.842 878.328L591.907 878.915Z" fill="#181816"/>
<path opacity="0.35" d="M301.079 1054.85C296.798 1059.66 292.575 1064.53 288.294 1069.4C287.826 1070.17 287.515 1071.03 287.379 1071.92C287.244 1072.82 287.286 1073.73 287.504 1074.61C287.722 1075.48 288.111 1076.31 288.649 1077.04C289.188 1077.76 289.864 1078.38 290.64 1078.84L291.285 1079.19C294.087 1080.89 297.275 1081.84 300.548 1081.97C303.821 1082.09 307.071 1081.38 309.993 1079.9C325.467 1071.39 340.446 1062.01 354.857 1051.8C362.481 1046.94 370.164 1042.07 377.612 1036.85C380.056 1034.88 382.226 1032.59 384.063 1030.05C384.377 1029.56 384.543 1028.99 384.543 1028.4C384.543 1027.82 384.377 1027.25 384.063 1026.76C383.441 1025.23 382.503 1023.85 381.311 1022.71C380.118 1021.57 378.698 1020.69 377.143 1020.14C376.674 1020.49 375.97 1020.72 375.677 1021.19C372.27 1027.61 367.787 1033.41 362.423 1038.32C362.423 1039.61 362.423 1040.72 360.429 1040.37L359.139 1041.83C359.139 1043.07 359.139 1044.42 357.145 1043.77C357.614 1045.76 356.265 1045.53 355.092 1045.53C352.798 1047.27 350.366 1048.82 347.82 1050.16V1050.75C347.82 1052.51 346.823 1052.68 345.474 1052.57L343.187 1053.39C343.187 1055.15 342.248 1055.56 340.724 1055.26C339.785 1055.91 338.378 1055.26 337.557 1056.44C336.736 1057.61 336.677 1058.2 335.446 1057.61H334.507C334.507 1058.61 334.507 1060.01 332.865 1058.37C331.773 1058.38 330.688 1058.54 329.64 1058.84C326.004 1058.84 322.778 1061.48 319.025 1060.78C318.666 1061.11 318.195 1061.3 317.705 1061.3C317.215 1061.3 316.744 1061.11 316.385 1060.78C316.217 1060.63 316.078 1060.45 315.975 1060.25C313.219 1058.14 309.348 1058.43 306.709 1056.2C305.07 1055.06 303.059 1054.58 301.079 1054.85Z" fill="#181816"/>
</svg>
