<?xml version="1.0" encoding="UTF-8" standalone="no"?>
<svg xmlns:dc="http://purl.org/dc/elements/1.1/" xmlns:cc="http://creativecommons.org/ns#" xmlns:rdf="http://www.w3.org/1999/02/22-rdf-syntax-ns#" xmlns:svg="http://www.w3.org/2000/svg" xmlns="http://www.w3.org/2000/svg" version="1.1" viewBox="0 0 512 512" enable-background="new 0 0 512 512" id="Capa_1" fill="#666">
   <g transform="matrix(1.6516156,0,0,1.6516156,-333.62677,11.259628)" id="g14">
      <path d="m 509.308,139.609 -23.242,-33.365 -0.803,-40.657 c -0.124,-6.283 -4.151,-11.823 -10.09,-13.878 L 436.751,38.407 412.244,5.96 C 408.45,0.938 401.924,-1.183 395.904,0.652 L 357,12.502 318.099,0.652 c -6.022,-1.834 -12.547,0.286 -16.34,5.308 L 277.25,38.405 238.828,51.706 c -5.938,2.056 -9.965,7.595 -10.09,13.878 l -0.804,40.658 -23.242,33.367 c -3.589,5.152 -3.589,11.995 0,17.147 l 23.242,33.364 0.803,40.658 c 0.124,6.283 4.151,11.823 10.09,13.878 l 38.422,13.302 24.508,32.446 c 3.794,5.022 10.319,7.142 16.34,5.308 L 357,283.863 l 38.902,11.85 c 1.442,0.439 2.913,0.652 4.369,0.652 4.621,0 9.086,-2.141 11.97,-5.96 l 24.509,-32.445 38.422,-13.301 c 5.938,-2.056 9.965,-7.595 10.09,-13.878 l 0.804,-40.658 23.242,-33.367 c 3.589,-5.152 3.589,-11.995 0,-17.147 z M 357,243.183 c -52.383,0 -95,-42.617 -95,-95 0,-52.383 42.617,-95 95,-95 52.383,0 95,42.617 95,95 0,52.383 -42.617,95 -95,95 z" id="path10" />
      <circle cx="357" cy="148.183" r="65" id="circle12" />
   </g>
</svg>
