<svg width="1623" height="1647" viewBox="0 0 1623 1647" fill="none" xmlns="http://www.w3.org/2000/svg">
<path d="M1604.4 862.436L1604.4 901.612L1079.87 1606.23L1079.87 1569.23L1604.4 862.436Z" fill="#7BD839"/>
<path d="M17.7534 1042.53L1079.83 1567.62L1079.87 1606.23L17.4548 1081.15L17.7534 1042.53Z" fill="#73D030"/>
<path d="M566.223 379.036L1606.57 862.435L1080.19 1569.23L17.7551 1042.53L566.223 379.036Z" fill="#90E652"/>
<g filter="url(#filter0_d)">
<path d="M999.341 635.834L1068.58 562.442L1336.77 697.656L1267.54 771.049L999.341 635.834Z" fill="#90E652"/>
<path d="M999.341 635.834V705.481L1267.05 838.245V770.775L999.341 635.834Z" fill="#73D02F"/>
<path d="M1267.05 770.775V838.246L1336.69 761.106V697.382L1267.05 770.775Z" fill="#65BB27"/>
</g>
<path d="M276.856 580.928L875.301 873.776L875.283 1328.66L276.811 1027.67L276.856 580.928Z" fill="#E4E6F3"/>
<path d="M875.283 1328.66L874.572 891.676L1086.4 479.837L1262.3 471.131L1249.63 858.529L875.283 1328.66Z" fill="white"/>
<g filter="url(#filter1_d)">
<path d="M639.58 183.838C640.006 183.838 640.426 183.928 640.814 184.103L1353.54 505.783C1356.42 507.082 1355.6 511.372 1352.44 511.514L1124.12 521.799C1123.65 521.82 1123.17 521.729 1122.74 521.531L395.945 189.567C393.013 188.227 393.968 183.838 397.191 183.838L639.58 183.838Z" fill="#524BEE"/>
<path d="M388.102 179.211C389.709 175.741 393.803 174.202 397.297 175.755L1129.29 501.089C1132.98 502.728 1134.52 507.138 1132.66 510.718L910.62 937.273C908.875 940.627 904.781 941.988 901.375 940.348L199.672 602.534C196.226 600.875 194.75 596.756 196.357 593.285L388.102 179.211Z" fill="#635CFE"/>
</g>
<path d="M451.948 510.307C474.617 460.435 522.676 375.365 533.558 353.602V81.5391L451.948 271.962V510.307Z" fill="white"/>
<path d="M343.135 462.384L451.948 510.307V271.962L343.135 217.555V462.384Z" fill="#E4E6F3"/>
<path d="M465.55 285.564L560.761 95.1409V125.074L465.55 312.767V285.564Z" fill="#E4E6F3"/>
<path d="M315.932 253.485V225.191L465.55 285.564V312.767L315.932 253.485Z" fill="#BDC1E1"/>
<path d="M315.932 225.191L421.407 39.1767L560.761 95.1409L465.55 285.564L315.932 225.191Z" fill="white"/>
<path d="M345.965 198.257L424.464 63.1887C425.213 61.8989 426.797 61.3559 428.18 61.9142L530.46 103.197C532.115 103.865 532.824 105.82 531.983 107.393L458.672 244.579C457.95 245.93 456.324 246.52 454.903 245.946L347.435 202.546C345.742 201.862 345.047 199.836 345.965 198.257Z" fill="#BDC1E1"/>
<path d="M317.751 736.186C317.751 734.705 319.304 733.738 320.632 734.391L572.286 857.992C572.97 858.328 573.404 859.025 573.404 859.787L573.396 1054.24C573.396 1055.72 571.835 1056.69 570.506 1056.03L318.841 930.917C318.161 930.579 317.731 929.885 317.731 929.125L317.751 736.186Z" fill="white"/>
<path d="M333.36 761.671L555.259 869.424L555.252 1034.35L333.343 923.836L333.36 761.671Z" fill="#BDC1E1"/>
<path d="M431.373 801.954L442.168 807.538L442.36 984.777L431.553 978.247L431.373 801.954Z" fill="white"/>
<path d="M328.991 852.012L328.992 838.954L558.509 954.306L558.509 968.782L328.991 852.012Z" fill="white"/>
<g filter="url(#filter2_d)">
<path d="M533.577 1210.42L602.814 1137.03L871.009 1272.24L801.772 1345.63L533.577 1210.42Z" fill="#90E652"/>
<path d="M533.577 1210.42V1280.07L801.282 1412.83V1345.36L533.577 1210.42Z" fill="#73D02F"/>
<path d="M801.282 1345.36V1412.83L870.929 1335.69V1271.97L801.282 1345.36Z" fill="#65BB27"/>
</g>
<path d="M1084.22 1068.95L1177.81 949.953L1447.69 1075.48L1350.24 1206.34L1084.22 1068.95Z" fill="#D0D4EA"/>
<path d="M1082.05 808.917L1092.49 814.11V1073.58L1082.05 1068.35L1082.05 808.917Z" fill="#B35F33"/>
<path d="M1092.49 814.111L1186.52 692.26V954.306L1092.49 1073.58V814.111Z" fill="#C77953"/>
<path d="M1175.63 688.777L1186.52 693.13L1092.49 814.142L1082.05 808.918L1175.63 688.777Z" fill="#BF6F46"/>
<defs>
<filter id="filter0_d" x="993.341" y="558.442" width="349.432" height="287.804" filterUnits="userSpaceOnUse" color-interpolation-filters="sRGB">
<feFlood flood-opacity="0" result="BackgroundImageFix"/>
<feColorMatrix in="SourceAlpha" type="matrix" values="0 0 0 0 0 0 0 0 0 0 0 0 0 0 0 0 0 0 127 0"/>
<feOffset dy="2"/>
<feGaussianBlur stdDeviation="3"/>
<feColorMatrix type="matrix" values="0 0 0 0 0 0 0 0 0 0 0 0 0 0 0 0 0 0 0.25 0"/>
<feBlend mode="normal" in2="BackgroundImageFix" result="effect1_dropShadow"/>
<feBlend mode="normal" in="SourceGraphic" in2="effect1_dropShadow" result="shape"/>
</filter>
<filter id="filter1_d" x="168.826" y="47.4731" width="1197.52" height="926.589" filterUnits="userSpaceOnUse" color-interpolation-filters="sRGB">
<feFlood flood-opacity="0" result="BackgroundImageFix"/>
<feColorMatrix in="SourceAlpha" type="matrix" values="0 0 0 0 0 0 0 0 0 0 0 0 0 0 0 0 0 0 127 0"/>
<feOffset dy="4"/>
<feGaussianBlur stdDeviation="5"/>
<feColorMatrix type="matrix" values="0 0 0 0 0 0 0 0 0 0 0 0 0 0 0 0 0 0 0.25 0"/>
<feBlend mode="normal" in2="BackgroundImageFix" result="effect1_dropShadow"/>
<feBlend mode="normal" in="SourceGraphic" in2="effect1_dropShadow" result="shape"/>
</filter>
<filter id="filter2_d" x="527.577" y="1133.03" width="349.432" height="287.804" filterUnits="userSpaceOnUse" color-interpolation-filters="sRGB">
<feFlood flood-opacity="0" result="BackgroundImageFix"/>
<feColorMatrix in="SourceAlpha" type="matrix" values="0 0 0 0 0 0 0 0 0 0 0 0 0 0 0 0 0 0 127 0"/>
<feOffset dy="2"/>
<feGaussianBlur stdDeviation="3"/>
<feColorMatrix type="matrix" values="0 0 0 0 0 0 0 0 0 0 0 0 0 0 0 0 0 0 0.25 0"/>
<feBlend mode="normal" in2="BackgroundImageFix" result="effect1_dropShadow"/>
<feBlend mode="normal" in="SourceGraphic" in2="effect1_dropShadow" result="shape"/>
</filter>
</defs>
</svg>
