<?xml version="1.0" encoding="UTF-8" standalone="no"?>
<svg xmlns:dc="http://purl.org/dc/elements/1.1/" xmlns:cc="http://creativecommons.org/ns#" xmlns:rdf="http://www.w3.org/1999/02/22-rdf-syntax-ns#" xmlns:svg="http://www.w3.org/2000/svg" xmlns="http://www.w3.org/2000/svg" version="1.1" viewBox="0 0 512 512" enable-background="new 0 0 512 512" id="Capa_1" fill="#666">
   <g transform="matrix(1.7011738,0,0,1.7011738,9.329005,-359.00099)" id="g8">
      <path d="M 152.924,512 C 68.602,512 0,443.399 0,359.076 0,290.144 46.529,229.478 113.151,211.548 c 5.758,-1.551 11.887,0.458 15.612,5.114 3.725,4.656 4.338,11.077 1.562,16.354 -9.371,17.813 -14.123,37.024 -14.123,57.099 0,67.78 55.144,122.923 122.924,122.923 10.458,0 21.216,-1.468 31.976,-4.364 5.759,-1.55 11.886,0.458 15.612,5.114 3.725,4.656 4.338,11.076 1.562,16.354 C 261.715,480.634 209.851,512 152.924,512 Z" id="path2" />
   </g>
</svg>
