<svg width="1571" height="1492" viewBox="0 0 1571 1492" fill="none" xmlns="http://www.w3.org/2000/svg">
<path d="M17.3604 732.454L17.3605 770.378L525.123 1452.48L525.122 1416.66L17.3604 732.454Z" fill="#694F42"/>
<path d="M1553.29 906.787L525.166 1415.1L525.124 1452.47L1553.58 944.178L1553.29 906.787Z" fill="#593D2F"/>
<path d="M1022.36 264.503L15.2564 732.452L524.814 1416.66L1553.29 906.787L1022.36 264.503Z" fill="#7A5A4B"/>
<path d="M1306.61 459.846L706.743 756.37L706.755 1177.77L1306.64 875.52L1306.61 459.846Z" fill="#E4E6F3"/>
<path d="M1286.08 702.808C1286.08 701.328 1284.53 700.361 1283.2 701.014L1107.36 787.379C1106.67 787.716 1106.24 788.412 1106.24 789.175L1106.24 924.637C1106.24 926.121 1107.8 927.088 1109.13 926.427L1284.98 839.005C1285.66 838.667 1286.09 837.973 1286.09 837.214L1286.08 702.808Z" fill="white"/>
<path d="M944.761 875.576C944.761 874.095 943.208 873.128 941.879 873.781L766.038 960.146C765.353 960.483 764.919 961.179 764.919 961.942L764.925 1097.4C764.925 1098.89 766.486 1099.86 767.815 1099.19L943.665 1011.77C944.345 1011.43 944.775 1010.74 944.775 1009.98L944.761 875.576Z" fill="white"/>
<path d="M1275.1 719.785L1119 795.585L1119.01 911.604L1275.11 833.861L1275.1 719.785Z" fill="#BDC1E1"/>
<path d="M933.781 892.549L777.684 968.349L777.689 1084.37L933.793 1006.63L933.781 892.549Z" fill="#BDC1E1"/>
<path d="M597.261 546.854L530.236 475.807L270.614 606.7L337.638 677.747L597.261 546.854Z" fill="#FF6359"/>
<path d="M582.892 542.617L527.939 484.366L284.674 606.178L339.627 664.429L582.892 542.617Z" fill="#F15D53"/>
<path d="M573.684 547.826L524.901 496.115L290.779 612.893L339.562 664.603L573.684 547.826Z" fill="#593D2F"/>
<path d="M597.261 546.854V614.275L338.112 742.796V677.482L597.261 546.854Z" fill="#F15D53"/>
<path d="M338.112 677.484V742.797L270.691 668.124V606.436L338.112 677.484Z" fill="#FF7971"/>
<g filter="url(#filter0_d)">
<circle cx="454.344" cy="545.129" r="47.2193" fill="#65BB27"/>
</g>
<circle cx="368.345" cy="561.826" r="63.9167" fill="#90E652"/>
<g filter="url(#filter1_d)">
<circle cx="525.084" cy="504.193" r="48.6557" fill="#73D02F"/>
</g>
<path d="M371.515 337.219L708.334 752.828V1178.73L364.692 759.349L371.515 337.219Z" fill="#F5F7FF"/>
<path d="M374.405 539.459C374.405 537.581 376.76 536.739 377.951 538.191L465.503 644.979C465.796 645.337 465.957 645.785 465.957 646.248L465.951 779.833C465.951 781.716 463.585 782.555 462.398 781.094L374.839 673.272C374.549 672.916 374.391 672.471 374.391 672.011L374.405 539.459Z" fill="white"/>
<path d="M584.41 800.716C584.41 798.838 586.766 797.996 587.957 799.449L675.509 906.237C675.802 906.594 675.962 907.042 675.962 907.505L675.956 1041.09C675.956 1042.97 673.591 1043.81 672.404 1042.35L584.844 934.53C584.554 934.173 584.396 933.728 584.396 933.269L584.41 800.716Z" fill="white"/>
<path d="M381.389 559.151L455.422 651.854L455.416 759.143L381.387 668.509L381.389 559.151Z" fill="#BDC1E1"/>
<path d="M591.394 820.405L665.426 913.109L665.421 1020.4L591.392 929.763L591.394 820.405Z" fill="#BDC1E1"/>
<path d="M1306.57 460.249L708.149 757.334L364.692 338.044L950.466 72.5638L1306.57 460.249Z" fill="#D4D8F0"/>
<rect x="1316.09" y="455.541" width="163.146" height="56.3815" transform="rotate(63.9335 1316.09 455.541)" fill="#635CFE"/>
<rect x="1214.8" y="505.088" width="163.146" height="56.3815" transform="rotate(63.9335 1214.8 505.088)" fill="#635CFE"/>
<rect x="1113.51" y="554.637" width="163.146" height="56.3815" transform="rotate(63.9335 1113.51 554.637)" fill="#635CFE"/>
<rect x="1012.21" y="604.187" width="163.146" height="56.3815" transform="rotate(63.9335 1012.21 604.187)" fill="#635CFE"/>
<rect x="910.921" y="653.737" width="163.146" height="56.3815" transform="rotate(63.9335 910.921 653.737)" fill="#635CFE"/>
<rect x="809.626" y="703.286" width="163.146" height="56.3815" transform="rotate(63.9335 809.626 703.286)" fill="#635CFE"/>
<rect x="1265.45" y="480.314" width="163.146" height="56.3815" transform="rotate(63.9335 1265.45 480.314)" fill="white"/>
<rect x="1164.15" y="529.864" width="163.146" height="56.3815" transform="rotate(63.9335 1164.15 529.864)" fill="white"/>
<rect x="1062.86" y="579.414" width="163.146" height="56.3815" transform="rotate(63.9335 1062.86 579.414)" fill="white"/>
<rect x="961.565" y="628.96" width="163.146" height="56.3815" transform="rotate(63.9335 961.565 628.96)" fill="white"/>
<rect x="860.273" y="678.51" width="163.146" height="56.3815" transform="rotate(63.9335 860.273 678.51)" fill="white"/>
<rect x="758.979" y="728.06" width="163.146" height="56.3815" transform="rotate(63.9335 758.979 728.06)" fill="white"/>
<path d="M780.072 928.667V899.222L1388 601.902V627.756L780.072 928.667Z" fill="#635CFE"/>
<path d="M1337.37 626.672L1388 601.895V627.39L1337.37 653.244V626.672Z" fill="white"/>
<path d="M1235.75 676.586L1286.38 651.809V678.381L1235.75 703.517V676.586Z" fill="white"/>
<path d="M1134.49 726.138L1185.12 701.181V729.549L1134.49 754.685V726.138Z" fill="white"/>
<path d="M1033.22 775.871L1083.86 750.915V779.282L1033.22 804.418V775.871Z" fill="white"/>
<path d="M931.962 825.066L982.593 800.109V828.477L931.962 853.613V825.066Z" fill="white"/>
<path d="M830.701 874.979L881.332 850.023V878.57L830.701 903.526V874.979Z" fill="white"/>
<rect width="130.566" height="45.3561" transform="matrix(-0.769544 0.638593 0.625503 0.780222 373.188 332.335)" fill="#635CFE"/>
<rect width="130.566" height="45.3561" transform="matrix(-0.769544 0.638593 0.625503 0.780222 429.928 403.11)" fill="#635CFE"/>
<rect width="130.566" height="45.3561" transform="matrix(-0.769544 0.638593 0.625503 0.780222 486.668 473.887)" fill="#635CFE"/>
<rect width="130.566" height="45.3561" transform="matrix(-0.769544 0.638593 0.625503 0.780222 543.411 544.662)" fill="#635CFE"/>
<rect width="130.566" height="45.3561" transform="matrix(-0.769544 0.638593 0.625503 0.780222 600.151 615.437)" fill="#635CFE"/>
<rect width="130.566" height="45.3561" transform="matrix(-0.769544 0.638593 0.625503 0.780222 656.891 686.214)" fill="#635CFE"/>
<rect width="130.566" height="45.3561" transform="matrix(-0.769544 0.638593 0.625503 0.780222 401.558 367.724)" fill="white"/>
<rect width="130.566" height="45.3561" transform="matrix(-0.769544 0.638593 0.625503 0.780222 458.298 438.499)" fill="white"/>
<rect width="130.566" height="45.3561" transform="matrix(-0.769544 0.638593 0.625503 0.780222 515.041 509.273)" fill="white"/>
<rect width="130.566" height="45.3561" transform="matrix(-0.769544 0.638593 0.625503 0.780222 571.781 580.051)" fill="white"/>
<rect width="130.566" height="45.3561" transform="matrix(-0.769544 0.638593 0.625503 0.780222 628.521 650.825)" fill="white"/>
<rect width="130.566" height="45.3561" transform="matrix(-0.769544 0.638593 0.625503 0.780222 685.261 721.6)" fill="white"/>
<path d="M603.396 861.867L613.175 840.228L272.617 415.501L264.031 434.5L603.396 861.867Z" fill="#635CFE"/>
<path d="M300.98 450.882L272.622 415.498L264.155 434.233L292.155 470.409L300.98 450.882Z" fill="white"/>
<path d="M357.835 522.035L329.477 486.651L320.652 506.179L348.891 541.826L357.835 522.035Z" fill="white"/>
<path d="M414.552 592.803L386.253 557.288L376.832 578.134L405.071 613.782L414.552 592.803Z" fill="white"/>
<path d="M471.21 663.704L442.911 628.189L433.49 649.035L461.729 684.683L471.21 663.704Z" fill="white"/>
<path d="M528.046 734.205L499.748 698.689L490.326 719.536L518.565 755.184L528.046 734.205Z" fill="white"/>
<path d="M584.642 805.238L556.343 769.723L546.862 790.701L575.161 826.217L584.642 805.238Z" fill="white"/>
<path d="M1172.06 286.061L730.313 504.421L730.322 649.568L1172.08 426.992L1172.06 286.061Z" fill="#E4E6F3"/>
<path d="M478.526 196.073L731.424 504.825L730.346 649.744L477.448 340.991L478.526 196.073Z" fill="#F5F7FF"/>
<path d="M1172.05 286.06L731.422 504.825L478.524 196.072L909.847 0.580292L1172.05 286.06Z" fill="#D4D8F0"/>
<path d="M1056.11 190.865L762.718 336.681L594.329 130.884L881.521 0.580292L1056.11 190.865Z" fill="#635CFE"/>
<path d="M732.756 504.551L764.714 335.423L593.612 130.567L477.628 196.099L732.756 504.551Z" fill="#7670FF"/>
<path d="M1171.91 286.051L732.215 506.348L764.174 335.964L1055.75 189.099L1171.91 286.051Z" fill="#554EFF"/>
<path d="M1055.03 190.535L880.876 1.11859H909.244L1172.99 287.128L1055.03 190.535Z" fill="#463FFF"/>
<path d="M540.996 799.67L533.959 803.168V977.943L540.996 974.424L540.996 799.67Z" fill="#B35F33"/>
<path d="M533.959 803.171L470.625 721.092V897.605L533.959 977.945V803.171Z" fill="#C77953"/>
<path d="M477.955 718.746L470.625 721.678L533.959 803.191L540.996 799.673L477.955 718.746Z" fill="#BF6F46"/>
<path d="M1053.96 1069.31L986.931 998.267L727.309 1129.16L794.333 1200.21L1053.96 1069.31Z" fill="#FF6359"/>
<path d="M1039.59 1065.08L984.634 1006.83L741.369 1128.64L796.322 1186.89L1039.59 1065.08Z" fill="#F15D53"/>
<path d="M1030.38 1070.29L981.596 1018.57L747.474 1135.35L796.257 1187.06L1030.38 1070.29Z" fill="#593D2F"/>
<path d="M1053.96 1069.31V1136.73L794.807 1265.26V1199.94L1053.96 1069.31Z" fill="#F15D53"/>
<path d="M794.807 1199.94V1265.26L727.386 1190.58V1128.9L794.807 1199.94Z" fill="#FF7971"/>
<circle cx="911.039" cy="1067.59" r="47.2193" fill="#65BB27"/>
<circle cx="825.04" cy="1084.29" r="63.9167" fill="#90E652"/>
<circle cx="981.779" cy="1026.66" r="48.6557" fill="#73D02F"/>
<path d="M1410.58 886.545L1343.56 815.498L1083.93 946.391L1150.96 1017.44L1410.58 886.545Z" fill="#FF6359"/>
<path d="M1396.21 882.308L1341.26 824.057L1097.99 945.869L1152.95 1004.12L1396.21 882.308Z" fill="#F15D53"/>
<path d="M1387 887.52L1338.22 835.809L1104.1 952.587L1152.88 1004.3L1387 887.52Z" fill="#593D2F"/>
<path d="M1410.58 886.545V953.966L1151.43 1082.49V1017.17L1410.58 886.545Z" fill="#F15D53"/>
<path d="M1151.43 1017.17V1082.49L1084.01 1007.81V946.127L1151.43 1017.17Z" fill="#FF7971"/>
<circle cx="1267.66" cy="884.823" r="47.2193" fill="#65BB27"/>
<circle cx="1181.66" cy="901.52" r="63.9167" fill="#90E652"/>
<circle cx="1338.4" cy="843.887" r="48.6557" fill="#73D02F"/>
<defs>
<filter id="filter0_d" x="398.125" y="497.909" width="112.439" height="130.439" filterUnits="userSpaceOnUse" color-interpolation-filters="sRGB">
<feFlood flood-opacity="0" result="BackgroundImageFix"/>
<feColorMatrix in="SourceAlpha" type="matrix" values="0 0 0 0 0 0 0 0 0 0 0 0 0 0 0 0 0 0 127 0"/>
<feOffset dy="27"/>
<feGaussianBlur stdDeviation="4.5"/>
<feColorMatrix type="matrix" values="0 0 0 0 0 0 0 0 0 0 0 0 0 0 0 0 0 0 0.25 0"/>
<feBlend mode="normal" in2="BackgroundImageFix" result="effect1_dropShadow"/>
<feBlend mode="normal" in="SourceGraphic" in2="effect1_dropShadow" result="shape"/>
</filter>
<filter id="filter1_d" x="467.429" y="455.538" width="115.311" height="133.311" filterUnits="userSpaceOnUse" color-interpolation-filters="sRGB">
<feFlood flood-opacity="0" result="BackgroundImageFix"/>
<feColorMatrix in="SourceAlpha" type="matrix" values="0 0 0 0 0 0 0 0 0 0 0 0 0 0 0 0 0 0 127 0"/>
<feOffset dy="27"/>
<feGaussianBlur stdDeviation="4.5"/>
<feColorMatrix type="matrix" values="0 0 0 0 0 0 0 0 0 0 0 0 0 0 0 0 0 0 0.25 0"/>
<feBlend mode="normal" in2="BackgroundImageFix" result="effect1_dropShadow"/>
<feBlend mode="normal" in="SourceGraphic" in2="effect1_dropShadow" result="shape"/>
</filter>
</defs>
</svg>
