<svg viewBox="0 0 29 29" fill="none" xmlns="http://www.w3.org/2000/svg" fill="#5B1FD6">
  <path d="M14.361 0.493652C6.53658 0.493652 0.171631 6.8586 0.171631 14.683C0.171631 22.5075 6.53658 28.8724 14.361 28.8724C22.1854 28.8724 28.5504 22.5075 28.5504 14.683C28.5504 6.8586 22.1854 0.493652 14.361 0.493652ZM15.5425 26.4457V25.8202C15.5425 25.1658 15.0155 24.6388 14.361 24.6388C13.7066 24.6388 13.1795 25.1658 13.1795 25.8202V26.4457C7.72385 25.9013 3.02688 20.1908 2.5983 15.8645H3.22379C3.87824 15.8645 4.40528 15.3375 4.40528 14.683C4.40528 14.0286 3.87824 13.5015 3.22379 13.5015H2.5983C3.15429 7.92425 7.60223 3.47632 13.1795 2.92032V3.54582C13.1795 4.20026 13.7066 4.7273 14.361 4.7273C15.0155 4.7273 15.5425 4.20026 15.5425 3.54582V2.92032C21.1198 3.47632 25.5677 7.92425 26.1237 13.5015H25.4982C24.8438 13.5015 24.3167 14.0286 24.3167 14.683C24.3167 15.3375 24.8438 15.8645 25.4982 15.8645H26.1237C25.5677 21.4418 21.1198 25.8897 15.5425 26.4457Z" />
  <path d="M19.6834 13.5017H15.5424V7.07308C15.5424 6.41864 15.0154 5.8916 14.3609 5.8916C13.7065 5.8916 13.1794 6.41864 13.1794 7.07308V14.6832C13.1794 15.3377 13.7065 15.8647 14.3609 15.8647H19.6834C20.3378 15.8647 20.8649 15.3377 20.8649 14.6832C20.8649 14.0288 20.332 13.5017 19.6834 13.5017Z" />
</svg>
